<svg xmlns="http://www.w3.org/2000/svg" xmlns:xlink="http://www.w3.org/1999/xlink" fill="#000000" height="501.6" preserveAspectRatio="xMidYMid meet" version="1" viewBox="-0.0 -0.0 530.0 501.6" width="530" zoomAndPan="magnify"><g fill="#ff3131" id="change1_1"><path d="M 454.15625 160.9375 C 455.457031 164.101562 456.710938 167.28125 457.878906 170.496094 C 460.242188 176.910156 462.34375 183.425781 464.183594 190.011719 C 466.039062 196.597656 467.605469 203.261719 468.9375 209.96875 C 469.289062 211.644531 469.566406 213.328125 469.886719 215.011719 L 470.667969 220.078125 C 471.171875 223.457031 471.789062 226.828125 472.078125 230.230469 L 472.617188 235.109375 L 472.894531 237.550781 C 472.996094 238.363281 473.011719 239.179688 473.074219 239.996094 C 473.285156 243.261719 473.496094 246.527344 473.710938 249.785156 C 473.769531 252.78125 473.632812 255.835938 473.542969 258.863281 C 473.535156 260.277344 473.320312 261.992188 473.160156 263.691406 C 473.003906 265.394531 472.878906 267.082031 472.902344 268.449219 C 472.878906 266.011719 472.851562 263.550781 472.824219 261.074219 C 472.746094 258.601562 472.578125 256.113281 472.476562 253.621094 C 472.421875 252.375 472.367188 251.128906 472.3125 249.878906 C 472.257812 248.628906 472.101562 247.378906 472.003906 246.125 C 471.789062 243.628906 471.574219 241.121094 471.359375 238.609375 C 471.074219 236.109375 470.707031 233.609375 470.394531 231.113281 L 469.910156 227.371094 C 469.734375 226.128906 469.476562 224.894531 469.265625 223.660156 C 468.824219 221.191406 468.386719 218.730469 467.945312 216.273438 C 467.460938 213.832031 466.925781 211.40625 466.351562 209.007812 C 467.0625 212.277344 467.726562 215.5625 468.214844 218.878906 L 469.003906 223.851562 C 469.265625 225.511719 469.550781 227.167969 469.691406 228.839844 C 470.023438 232.183594 470.429688 235.527344 470.703125 238.882812 L 471.21875 248.980469 C 471.539062 262.464844 470.554688 276.019531 468.207031 289.34375 L 467.625 292.796875 C 467.394531 293.941406 467.128906 295.078125 466.878906 296.21875 L 465.34375 303.054688 C 464.769531 305.316406 464.097656 307.558594 463.472656 309.808594 L 462.519531 313.175781 C 462.222656 314.304688 461.789062 315.394531 461.429688 316.503906 C 468.996094 290.109375 471.503906 262.457031 468.972656 235.402344 L 468.144531 227.605469 C 467.785156 225.015625 467.339844 222.4375 466.941406 219.855469 L 466.335938 215.988281 L 465.59375 212.144531 L 464.78125 208.316406 L 463.90625 204.507812 C 462.859375 200.132812 461.445312 195.578125 460.464844 191.25 C 459.40625 186.558594 457.757812 181.644531 456.179688 177.054688 L 456.394531 177.917969 C 457.09375 180.765625 458.101562 184.058594 458.789062 186.894531 C 459.714844 190.550781 460.554688 194.234375 461.347656 197.9375 C 462.371094 202.714844 463.296875 207.519531 464.105469 212.351562 L 464.6875 215.980469 L 465.160156 219.625 L 466.136719 226.914062 C 466.382812 229.351562 466.566406 231.796875 466.796875 234.238281 L 467.128906 237.898438 C 467.222656 239.121094 467.234375 240.347656 467.296875 241.570312 C 467.398438 244.019531 467.5 246.46875 467.601562 248.914062 C 467.617188 251.359375 467.5625 253.808594 467.546875 256.253906 C 467.355469 271.613281 465.496094 287.039062 461.925781 302.105469 C 458.359375 317.171875 452.96875 331.828125 446.03125 345.667969 C 446.777344 344.210938 447.480469 342.007812 447.984375 340.453125 C 448.625 338.632812 449.292969 336.8125 449.972656 334.996094 C 450.863281 332.753906 451.605469 330.402344 452.371094 328.078125 C 452.746094 326.914062 453.125 325.75 453.496094 324.597656 C 453.863281 323.445312 454.230469 322.300781 454.480469 321.136719 C 457.390625 310.242188 460.519531 298.039062 462.246094 286.625 C 464.238281 273.476562 465 260.171875 464.539062 246.925781 C 464.363281 243.824219 464.257812 240.738281 463.992188 237.675781 C 463.648438 234.617188 463.304688 231.574219 462.960938 228.527344 C 462.542969 225.496094 461.960938 222.484375 461.46875 219.460938 C 461.21875 217.949219 460.96875 216.4375 460.636719 214.9375 C 460.339844 213.433594 460.007812 211.929688 459.664062 210.429688 C 458.652344 205.976562 457.480469 201.578125 456.136719 197.261719 C 457.710938 203.609375 458.960938 210.03125 459.949219 216.492188 L 461.15625 226.21875 C 461.394531 227.835938 461.457031 229.46875 461.582031 231.097656 L 461.929688 235.980469 C 462.660156 249.011719 462.191406 262.089844 460.503906 275.015625 L 459.855469 279.871094 C 459.765625 280.683594 459.609375 281.484375 459.460938 282.289062 L 459.011719 284.695312 C 458.402344 287.90625 457.902344 291.132812 457.074219 294.296875 C 456.722656 295.78125 456.390625 297.277344 456.066406 298.78125 L 455.589844 301.046875 L 455.011719 303.289062 L 453.863281 307.789062 L 453.285156 310.035156 L 452.996094 311.152344 L 452.648438 312.253906 C 448.910156 324.847656 443.980469 337.109375 437.878906 348.78125 C 436.8125 350.789062 435.683594 352.761719 434.589844 354.753906 L 432.9375 357.734375 C 432.375 358.722656 431.75 359.671875 431.15625 360.640625 L 427.5625 366.4375 C 426.304688 368.332031 424.984375 370.1875 423.703125 372.0625 L 421.765625 374.871094 C 421.105469 375.796875 420.390625 376.683594 419.707031 377.589844 L 415.5625 383.007812 C 414.121094 384.769531 412.632812 386.484375 411.167969 388.230469 L 408.96875 390.835938 C 408.21875 391.6875 407.421875 392.503906 406.652344 393.339844 C 404.765625 395.222656 402.980469 397.003906 401.320312 398.664062 C 399.582031 400.246094 397.972656 401.71875 396.496094 403.0625 C 395.757812 403.730469 395.050781 404.367188 394.382812 404.96875 C 393.710938 405.570312 393.019531 406.078125 392.394531 406.582031 C 391.132812 407.570312 390.015625 408.414062 389.050781 409.085938 L 393.878906 404.890625 L 398.484375 400.445312 L 400.785156 398.21875 C 401.542969 397.46875 402.25 396.664062 402.980469 395.890625 L 407.339844 391.195312 C 408.085938 390.429688 408.742188 389.585938 409.433594 388.769531 L 411.488281 386.3125 L 413.539062 383.855469 L 414.5625 382.625 L 415.523438 381.34375 C 418.066406 377.914062 420.726562 374.574219 423.03125 370.980469 C 424.214844 369.210938 425.4375 367.464844 426.585938 365.671875 L 429.890625 360.203125 L 431.542969 357.476562 L 433.058594 354.671875 L 436.089844 349.070312 C 437.066406 347.1875 437.9375 345.25 438.871094 343.347656 C 439.769531 341.429688 440.765625 339.558594 441.542969 337.589844 C 443.175781 333.683594 444.925781 329.839844 446.304688 325.851562 C 455.617188 301.132812 460.109375 274.371094 459.3125 248.042969 C 459.203125 245.644531 459.09375 243.238281 458.984375 240.835938 L 458.910156 239.03125 C 458.878906 238.429688 458.804688 237.832031 458.753906 237.234375 L 458.410156 233.640625 L 457.921875 228.503906 C 457.703125 226.796875 457.421875 225.097656 457.175781 223.394531 C 456.824219 221.175781 456.609375 218.558594 456.070312 216.421875 C 456.015625 216.183594 455.953125 215.925781 455.902344 215.714844 C 456.09375 217.257812 456.285156 218.90625 456.511719 220.5625 C 456.746094 222.214844 456.980469 223.878906 457.199219 225.441406 L 457.53125 227.949219 C 457.621094 228.789062 457.664062 229.632812 457.738281 230.472656 L 458.132812 235.519531 C 458.953125 247.992188 458.855469 260.511719 457.6875 272.960938 C 456.503906 285.398438 454.304688 297.785156 450.828125 309.851562 C 447.949219 319.628906 444.4375 329.261719 440.207031 338.601562 C 435.859375 347.882812 430.882812 356.875 425.320312 365.488281 C 416.40625 377.226562 405.320312 390.074219 392.847656 401.515625 C 380.40625 412.996094 366.417969 422.789062 353.410156 429.917969 C 355.84375 428.34375 357.78125 427.121094 359.296875 426.097656 C 360.773438 425.011719 361.882812 424.195312 362.734375 423.570312 C 364.429688 422.308594 365.085938 421.769531 365.636719 421.308594 C 366.175781 420.828125 366.664062 420.503906 367.878906 419.457031 C 369.105469 418.433594 371.128906 416.792969 374.84375 413.871094 C 374.183594 414.347656 371.859375 416.019531 368.699219 418.296875 C 367.898438 418.855469 367.089844 419.507812 366.164062 420.085938 C 365.253906 420.675781 364.300781 421.292969 363.316406 421.929688 C 362.335938 422.566406 361.328125 423.222656 360.308594 423.886719 C 359.285156 424.546875 358.261719 425.242188 357.175781 425.839844 C 355.039062 427.082031 352.894531 428.328125 350.859375 429.511719 C 349.855469 430.128906 348.828125 430.644531 347.847656 431.144531 C 346.871094 431.648438 345.933594 432.132812 345.050781 432.585938 C 343.289062 433.496094 341.746094 434.289062 340.539062 434.914062 C 339.304688 435.472656 338.40625 435.875 337.972656 436.070312 C 336.355469 436.789062 334.558594 437.574219 333.070312 438.269531 C 331.5625 439.015625 329.960938 439.613281 328.386719 440.25 C 325.230469 441.484375 322.035156 442.898438 318.722656 443.945312 C 315.429688 445.046875 312.199219 446.28125 308.976562 447.125 C 305.695312 448.039062 302.324219 449.121094 298.824219 449.832031 C 295.347656 450.613281 291.753906 451.546875 288.054688 452.085938 C 286.210938 452.398438 284.335938 452.71875 282.433594 453.039062 C 281.480469 453.226562 280.511719 453.308594 279.535156 453.421875 C 278.558594 453.53125 277.574219 453.644531 276.585938 453.757812 C 274.601562 453.96875 272.589844 454.222656 270.542969 454.40625 C 268.492188 454.515625 266.410156 454.621094 264.296875 454.730469 C 265.746094 454.605469 267.15625 454.480469 268.523438 454.359375 C 269.210938 454.300781 269.882812 454.238281 270.546875 454.183594 C 271.210938 454.121094 271.859375 454.003906 272.5 453.917969 C 275.0625 453.554688 277.464844 453.210938 279.710938 452.890625 C 280.269531 452.8125 280.824219 452.734375 281.375 452.660156 C 281.921875 452.554688 282.460938 452.449219 282.992188 452.347656 C 284.054688 452.144531 285.09375 451.945312 286.109375 451.753906 C 288.136719 451.363281 290.058594 450.996094 291.871094 450.648438 C 295.457031 449.769531 298.71875 448.96875 301.8125 448.207031 C 304.859375 447.296875 307.742188 446.433594 310.621094 445.570312 C 311.050781 445.4375 311.464844 445.304688 311.867188 445.175781 C 312.261719 445.027344 312.644531 444.882812 313.019531 444.742188 C 313.765625 444.460938 314.476562 444.191406 315.15625 443.933594 C 316.519531 443.417969 317.777344 442.945312 319.035156 442.46875 C 321.570312 441.585938 323.992188 440.398438 327.269531 438.976562 C 326.566406 439.257812 325.59375 439.648438 324.414062 440.121094 C 323.824219 440.359375 323.1875 440.613281 322.503906 440.886719 C 321.820312 441.167969 321.09375 441.449219 320.3125 441.699219 C 318.761719 442.222656 317.074219 442.792969 315.316406 443.386719 C 313.554688 443.96875 311.75 444.65625 309.878906 445.132812 C 308.023438 445.65625 306.171875 446.183594 304.386719 446.6875 C 303.496094 446.941406 302.621094 447.191406 301.773438 447.433594 C 300.917969 447.632812 300.085938 447.820312 299.289062 448.003906 C 296.109375 448.746094 293.503906 449.351562 292.050781 449.691406 C 281.046875 451.972656 269.820312 453.433594 258.535156 454.003906 C 255.710938 454.089844 252.886719 454.171875 250.058594 454.261719 L 241.578125 454.078125 C 240.871094 454.054688 240.160156 454.074219 239.457031 454.019531 L 237.339844 453.863281 L 233.105469 453.558594 C 231.695312 453.4375 230.277344 453.40625 228.875 453.21875 L 224.660156 452.699219 L 220.445312 452.1875 C 219.039062 452.023438 217.652344 451.722656 216.253906 451.496094 L 212.066406 450.773438 L 209.976562 450.414062 C 209.28125 450.277344 208.59375 450.105469 207.902344 449.953125 C 205.140625 449.316406 202.371094 448.734375 199.617188 448.070312 L 191.433594 445.800781 C 180.597656 442.523438 170.039062 438.367188 159.910156 433.40625 L 156.429688 431.660156 C 155.273438 431.070312 154.09375 430.53125 152.976562 429.863281 C 150.710938 428.585938 148.449219 427.308594 146.179688 426.027344 C 143.941406 424.707031 141.769531 423.261719 139.558594 421.890625 C 137.320312 420.550781 135.21875 419.007812 133.085938 417.515625 L 129.882812 415.273438 C 128.800781 414.550781 127.816406 413.695312 126.773438 412.914062 L 123.691406 410.519531 L 122.152344 409.324219 L 121.382812 408.730469 L 120.640625 408.09375 C 118.671875 406.398438 116.699219 404.710938 114.730469 403.019531 C 113.722656 402.203125 112.828125 401.261719 111.875 400.386719 L 109.058594 397.71875 C 108.15625 396.847656 107.203125 396.019531 106.339844 395.105469 L 103.730469 392.378906 C 102.863281 391.46875 101.992188 390.5625 101.128906 389.65625 C 100.699219 389.199219 100.25 388.761719 99.835938 388.289062 L 98.613281 386.867188 C 98.410156 386.636719 96.90625 384.925781 94.273438 381.929688 C 93.59375 381.195312 92.917969 380.320312 92.167969 379.375 C 91.414062 378.429688 90.597656 377.402344 89.71875 376.300781 C 88.851562 375.1875 87.859375 374.042969 86.917969 372.738281 C 85.980469 371.4375 84.984375 370.058594 83.9375 368.601562 C 79.695312 362.816406 75.09375 355.484375 70.347656 346.847656 C 69.214844 344.65625 68.042969 342.402344 66.84375 340.082031 C 65.699219 337.730469 64.632812 335.265625 63.46875 332.769531 C 62.257812 330.292969 61.3125 327.628906 60.222656 324.953125 C 59.6875 323.613281 59.144531 322.257812 58.597656 320.886719 C 58.125 319.488281 57.644531 318.074219 57.160156 316.648438 C 53.234375 305.265625 49.996094 292.546875 48.050781 278.921875 C 46.109375 265.386719 45.570312 250.925781 46.800781 236.078125 C 48.019531 221.238281 51 206.03125 55.769531 191.082031 C 60.65625 176.171875 67.320312 161.554688 75.492188 147.820312 C 76.457031 146.066406 77.578125 144.410156 78.65625 142.730469 L 81.894531 137.6875 L 85.363281 132.808594 C 86.53125 131.191406 87.628906 129.527344 88.894531 127.988281 C 91.375 124.871094 93.722656 121.664062 96.375 118.71875 C 97.664062 117.214844 98.953125 115.710938 100.234375 114.214844 C 101.589844 112.777344 102.9375 111.34375 104.285156 109.914062 C 109.640625 104.152344 115.410156 98.902344 121.203125 93.851562 C 122.664062 92.601562 124.1875 91.4375 125.664062 90.230469 L 127.890625 88.441406 C 128.632812 87.847656 129.355469 87.230469 130.136719 86.691406 C 131.664062 85.578125 133.191406 84.464844 134.707031 83.359375 C 135.464844 82.804688 136.222656 82.253906 136.976562 81.699219 C 137.734375 81.148438 138.53125 80.664062 139.304688 80.144531 C 151.644531 71.8125 164.410156 65.121094 176.972656 60.074219 C 189.535156 55.015625 201.878906 51.605469 213.421875 49.496094 C 214.863281 49.234375 216.292969 48.972656 217.707031 48.714844 C 218.40625 48.570312 219.121094 48.476562 219.839844 48.390625 C 220.550781 48.300781 221.261719 48.210938 221.964844 48.121094 C 223.375 47.9375 224.769531 47.761719 226.144531 47.582031 C 227.523438 47.398438 228.878906 47.207031 230.230469 47.132812 C 232.925781 46.917969 235.554688 46.710938 238.105469 46.503906 C 240.664062 46.382812 243.148438 46.347656 245.554688 46.257812 C 246.757812 46.234375 247.941406 46.144531 249.105469 46.175781 C 250.269531 46.195312 251.414062 46.21875 252.539062 46.242188 C 254.785156 46.300781 256.957031 46.277344 259.035156 46.390625 C 261.109375 46.527344 263.101562 46.660156 265.007812 46.789062 C 265.960938 46.847656 266.890625 46.910156 267.796875 46.96875 C 268.699219 47.054688 269.578125 47.171875 270.4375 47.265625 C 272.152344 47.460938 273.773438 47.648438 275.300781 47.824219 C 276.066406 47.910156 276.804688 47.992188 277.519531 48.074219 C 278.230469 48.1875 278.917969 48.300781 279.578125 48.410156 C 282.226562 48.839844 284.476562 49.207031 286.300781 49.503906 C 288.121094 49.816406 289.496094 50.167969 290.433594 50.347656 C 291.367188 50.546875 291.851562 50.648438 291.851562 50.648438 C 293.21875 50.90625 294.582031 51.164062 295.933594 51.421875 C 297.28125 51.6875 298.605469 52.027344 299.933594 52.308594 C 301.261719 52.589844 302.582031 52.867188 303.890625 53.144531 C 304.546875 53.277344 305.199219 53.410156 305.851562 53.539062 C 306.496094 53.699219 307.136719 53.855469 307.777344 54.011719 C 310.332031 54.636719 312.871094 55.179688 315.359375 55.730469 C 317.8125 56.371094 320.238281 56.960938 322.628906 57.503906 C 323.230469 57.636719 323.824219 57.769531 324.414062 57.902344 C 325 58.058594 325.578125 58.210938 326.152344 58.363281 C 327.3125 58.660156 328.460938 58.949219 329.589844 59.234375 C 331.859375 59.789062 334.105469 60.261719 336.226562 60.855469 C 338.367188 61.410156 340.464844 61.90625 342.511719 62.351562 C 344.554688 62.808594 346.476562 63.34375 348.382812 63.746094 C 350.273438 64.179688 352.136719 64.503906 353.886719 64.859375 C 355.621094 65.234375 357.296875 65.550781 358.902344 65.800781 C 360.511719 66.046875 362.050781 66.230469 363.511719 66.347656 C 364.949219 66.5 366.289062 66.613281 367.5625 66.632812 C 372.632812 66.730469 376.367188 65.640625 378.128906 63.089844 C 379.9375 60.464844 379.460938 56.519531 376.835938 51.496094 C 376.167969 50.253906 375.40625 48.886719 374.449219 47.566406 C 373.492188 46.242188 372.40625 44.859375 371.1875 43.425781 C 369.96875 42 368.636719 40.488281 367.144531 38.996094 C 365.632812 37.542969 363.992188 36.050781 362.230469 34.527344 C 358.753906 31.386719 354.582031 28.519531 350.058594 25.433594 C 347.765625 23.953125 345.316406 22.558594 342.789062 21.105469 C 341.519531 20.394531 340.242188 19.636719 338.90625 18.964844 C 337.558594 18.3125 336.195312 17.652344 334.8125 16.980469 C 323.730469 11.675781 310.824219 7.140625 296.8125 4.527344 L 296.589844 4.480469 C 296.410156 4.402344 293.851562 3.960938 289.203125 3.210938 C 286.875 2.851562 284.042969 2.304688 280.683594 1.976562 C 279.007812 1.785156 277.210938 1.578125 275.296875 1.359375 C 274.335938 1.25 273.351562 1.140625 272.335938 1.023438 C 271.316406 0.929688 270.265625 0.878906 269.191406 0.800781 C 264.882812 0.53125 260.121094 0.105469 254.933594 0.109375 C 253.636719 0.0859375 252.3125 0.0625 250.964844 0.0390625 C 249.617188 0.03125 248.242188 -0.0390625 246.84375 0.03125 C 244.050781 0.117188 241.15625 0.207031 238.164062 0.296875 C 226.199219 0.929688 212.867188 2.308594 198.289062 5.386719 C 183.78125 8.449219 168.398438 13.269531 152.898438 20.058594 C 137.40625 26.859375 121.835938 35.691406 106.945312 46.488281 C 105.089844 47.84375 103.226562 49.210938 101.355469 50.578125 C 99.550781 52.023438 97.734375 53.480469 95.914062 54.941406 C 95.003906 55.671875 94.09375 56.40625 93.183594 57.140625 L 91.816406 58.246094 L 90.496094 59.410156 C 88.734375 60.96875 86.96875 62.527344 85.195312 64.09375 C 84.316406 64.886719 83.410156 65.652344 82.550781 66.464844 L 79.988281 68.941406 C 78.28125 70.597656 76.570312 72.261719 74.855469 73.925781 C 73.160156 75.613281 71.554688 77.394531 69.894531 79.132812 L 67.421875 81.765625 C 66.597656 82.640625 65.769531 83.515625 64.996094 84.445312 C 52.207031 98.914062 40.769531 115.019531 31.207031 132.261719 C 21.753906 149.570312 14.226562 168.011719 8.9375 186.878906 L 8.417969 188.640625 L 7.980469 190.421875 L 7.109375 193.984375 C 6.542969 196.363281 5.9375 198.726562 5.414062 201.101562 C 4.953125 203.492188 4.496094 205.882812 4.042969 208.261719 C 3.589844 210.644531 3.109375 213.015625 2.820312 215.417969 C 2.175781 220.203125 1.398438 224.949219 1.082031 229.722656 C 0.875 232.105469 0.671875 234.476562 0.472656 236.84375 C 0.332031 239.214844 0.285156 241.582031 0.191406 243.941406 C 0.152344 245.121094 0.113281 246.296875 0.0742188 247.472656 C 0.046875 248.644531 -0.03125 249.816406 0.015625 250.988281 C 0.0546875 253.332031 0.0976562 255.664062 0.136719 257.988281 C 0.128906 262.636719 0.582031 267.230469 0.890625 271.78125 C 0.972656 272.921875 1.054688 274.058594 1.140625 275.1875 C 1.28125 276.316406 1.417969 277.441406 1.558594 278.5625 C 1.839844 280.804688 2.121094 283.035156 2.402344 285.253906 C 2.554688 286.355469 2.660156 287.476562 2.855469 288.5625 C 3.050781 289.648438 3.242188 290.730469 3.4375 291.8125 C 3.824219 293.976562 4.210938 296.121094 4.597656 298.257812 C 7.929688 315.304688 12.894531 331.175781 18.773438 345.40625 C 24.644531 359.648438 31.414062 372.253906 38.195312 383.117188 C 39.945312 385.800781 41.644531 388.410156 43.289062 390.9375 C 45.003906 393.421875 46.746094 395.769531 48.394531 398.0625 C 49.222656 399.203125 50.039062 400.324219 50.839844 401.425781 C 51.6875 402.488281 52.519531 403.535156 53.335938 404.558594 C 54.972656 406.605469 56.542969 408.566406 58.046875 410.445312 C 61.199219 414.074219 64.085938 417.367188 66.707031 420.257812 C 69.425781 423.0625 71.8125 425.523438 73.847656 427.621094 C 74.847656 428.6875 75.859375 429.558594 76.722656 430.394531 C 77.597656 431.214844 78.378906 431.945312 79.058594 432.585938 C 80.421875 433.859375 81.382812 434.761719 81.921875 435.265625 C 102.761719 454.15625 126.898438 469.699219 153.023438 480.613281 C 166.085938 486.0625 179.605469 490.402344 193.363281 493.585938 C 207.121094 496.761719 221.121094 498.855469 235.152344 499.582031 C 268.371094 501.511719 302.179688 496.730469 333.589844 485.292969 C 324.0625 488.214844 320.261719 488.917969 318.214844 489.371094 C 316.160156 489.789062 315.789062 489.722656 312.902344 490.078125 C 315.808594 489.242188 318.664062 488.421875 321.480469 487.613281 C 322.882812 487.191406 324.296875 486.839844 325.664062 486.363281 C 327.035156 485.898438 328.394531 485.433594 329.75 484.972656 C 331.105469 484.511719 332.449219 484.050781 333.789062 483.59375 C 335.121094 483.117188 336.472656 482.714844 337.765625 482.167969 C 340.371094 481.128906 342.953125 480.097656 345.523438 479.070312 C 346.578125 478.640625 347.808594 478.230469 349.066406 477.636719 C 350.335938 477.070312 351.691406 476.464844 353.09375 475.839844 C 354.492188 475.210938 355.9375 474.558594 357.378906 473.910156 C 358.097656 473.585938 358.824219 473.273438 359.53125 472.933594 C 360.230469 472.582031 360.921875 472.230469 361.601562 471.886719 C 364.398438 470.460938 367.214844 469.023438 370.03125 467.589844 C 372.785156 466.039062 375.523438 464.445312 378.257812 462.875 C 380.949219 461.390625 383.492188 459.652344 386.09375 458.003906 L 389.976562 455.496094 L 390.945312 454.867188 L 391.886719 454.199219 L 393.769531 452.855469 C 396.269531 451.050781 398.804688 449.285156 401.277344 447.433594 L 408.539062 441.671875 C 418.058594 433.78125 427.085938 425.269531 435.351562 416.082031 C 425.34375 427.003906 414.3125 436.753906 402.613281 445.714844 C 390.351562 455.097656 377.21875 463.320312 363.441406 470.246094 C 350.257812 476.871094 336.488281 482.3125 322.371094 486.496094 C 318.824219 487.46875 315.289062 488.507812 311.726562 489.398438 L 300.964844 491.8125 C 298.238281 492.355469 295.691406 492.960938 292.929688 493.46875 L 287.617188 494.410156 L 282.269531 495.109375 C 280.230469 495.375 278.179688 495.640625 276.121094 495.90625 C 274.0625 496.15625 271.976562 496.257812 269.898438 496.441406 C 267.816406 496.601562 265.734375 496.761719 263.65625 496.921875 C 261.578125 497.082031 259.492188 497.074219 257.421875 497.160156 C 240.386719 497.75 223.132812 496.558594 206.191406 493.550781 C 189.246094 490.550781 172.617188 485.742188 156.789062 479.3125 C 124.210938 466.109375 94.691406 445.40625 70.972656 419.582031 C 92.613281 442.578125 118.78125 461.3125 147.535156 474.425781 C 176.277344 487.570312 207.605469 495.042969 239.140625 496.3125 C 243.003906 496.386719 246.867188 496.511719 250.726562 496.539062 L 262.304688 496.1875 C 266.914062 495.878906 270.367188 495.589844 273.824219 495.316406 C 274.257812 495.28125 274.6875 495.246094 275.121094 495.210938 C 275.554688 495.15625 275.988281 495.101562 276.425781 495.042969 C 277.304688 494.929688 278.199219 494.8125 279.128906 494.691406 C 280.988281 494.441406 282.992188 494.175781 285.28125 493.871094 C 286.234375 493.742188 287.191406 493.648438 288.140625 493.484375 L 290.976562 492.976562 L 296.652344 491.941406 C 300.453125 491.332031 304.179688 490.328125 307.929688 489.484375 C 309.054688 489.222656 310.039062 488.992188 310.953125 488.78125 C 311.867188 488.574219 312.710938 488.371094 313.539062 488.117188 C 315.203125 487.640625 316.871094 487.160156 319.09375 486.519531 C 321.3125 485.871094 322.425781 485.566406 324.640625 484.890625 C 326.710938 484.1875 327.742188 483.839844 329.816406 483.136719 C 331.5 482.5625 333.226562 481.972656 334.960938 481.378906 C 335.835938 481.09375 336.6875 480.757812 337.535156 480.410156 C 338.386719 480.070312 339.230469 479.734375 340.070312 479.398438 C 341.75 478.730469 343.398438 478.070312 344.984375 477.4375 C 345.777344 477.125 346.554688 476.816406 347.3125 476.519531 C 348.058594 476.1875 348.78125 475.871094 349.480469 475.5625 C 377.03125 463.96875 402.300781 446.882812 423.8125 426.035156 L 418.292969 430.929688 C 416.398438 432.5 414.472656 434.027344 412.5625 435.574219 C 408.800781 438.726562 404.761719 441.527344 400.816406 444.425781 L 407.144531 439.320312 C 408.21875 438.484375 409.226562 437.585938 410.238281 436.679688 L 413.277344 433.980469 C 417.402344 430.457031 421.1875 426.570312 425.070312 422.792969 C 420.988281 426.632812 416.984375 430.539062 412.660156 434.097656 C 408.480469 437.816406 403.992188 441.164062 399.582031 444.589844 C 397.351562 446.269531 395.023438 447.824219 392.746094 449.4375 L 389.3125 451.835938 C 388.152344 452.609375 386.960938 453.335938 385.78125 454.089844 L 378.691406 458.535156 L 371.398438 462.644531 C 370.175781 463.3125 368.988281 464.042969 367.734375 464.65625 L 363.996094 466.53125 L 360.257812 468.398438 C 359.007812 469.011719 357.777344 469.667969 356.492188 470.207031 L 348.84375 473.566406 L 346.933594 474.40625 C 346.292969 474.679688 345.636719 474.910156 344.988281 475.164062 L 341.089844 476.652344 L 337.191406 478.136719 L 335.238281 478.875 L 333.257812 479.519531 L 325.328125 482.097656 C 324.664062 482.304688 324.011719 482.535156 323.34375 482.722656 L 321.332031 483.265625 L 317.3125 484.355469 C 314.628906 485.054688 311.972656 485.863281 309.246094 486.394531 C 338.703125 479.171875 366.855469 466.382812 391.683594 448.828125 L 398.070312 444.234375 L 404.230469 439.34375 L 407.308594 436.890625 L 410.269531 434.300781 L 416.1875 429.109375 C 423.398438 422.246094 430.515625 415.371094 436.875 407.769531 C 435.992188 408.796875 434.832031 409.851562 433.894531 410.878906 C 432.726562 412.210938 431.457031 413.457031 430.207031 414.714844 L 426.378906 418.535156 L 424.464844 420.441406 C 423.8125 421.0625 423.132812 421.65625 422.46875 422.265625 L 416.8125 427.6875 C 415.886719 428.605469 414.890625 429.453125 413.90625 430.3125 L 410.949219 432.882812 C 407.070312 436.386719 402.890625 439.535156 398.792969 442.769531 C 397.78125 443.59375 396.710938 444.339844 395.644531 445.09375 L 392.453125 447.359375 C 390.3125 448.847656 388.238281 450.429688 386.011719 451.789062 C 383.816406 453.1875 381.621094 454.589844 379.429688 455.984375 C 378.878906 456.332031 378.339844 456.691406 377.78125 457.023438 L 376.089844 457.992188 L 372.710938 459.925781 C 371.554688 460.582031 370.394531 461.246094 369.226562 461.910156 C 368.640625 462.238281 368.058594 462.585938 367.464844 462.898438 L 365.65625 463.816406 C 363.238281 465.039062 360.808594 466.269531 358.378906 467.496094 C 357.246094 468.09375 356.0625 468.617188 354.875 469.140625 C 353.6875 469.671875 352.496094 470.203125 351.296875 470.738281 C 350.097656 471.269531 348.894531 471.804688 347.683594 472.34375 C 347.074219 472.605469 346.476562 472.882812 345.859375 473.136719 L 344 473.855469 C 341.546875 474.832031 339.074219 475.8125 336.5625 476.8125 C 335.9375 477.058594 335.304688 477.304688 334.671875 477.550781 C 334.027344 477.769531 333.378906 477.992188 332.730469 478.214844 C 331.433594 478.652344 330.121094 479.101562 328.796875 479.546875 C 323.535156 481.457031 317.902344 482.929688 311.976562 484.640625 C 315.328125 483.574219 318.683594 482.507812 321.964844 481.464844 L 323.191406 481.070312 C 323.589844 480.921875 323.988281 480.773438 324.390625 480.628906 C 325.1875 480.332031 325.976562 480.039062 326.757812 479.75 C 328.324219 479.171875 329.859375 478.605469 331.359375 478.050781 C 334.425781 476.992188 337.449219 475.625 340.40625 474.375 C 341.886719 473.75 343.34375 473.132812 344.757812 472.53125 C 346.175781 471.949219 347.5 471.253906 348.796875 470.667969 C 350.296875 469.96875 351.800781 469.265625 353.308594 468.558594 C 354.808594 467.839844 356.34375 467.183594 357.800781 466.371094 C 360.753906 464.8125 363.710938 463.253906 366.664062 461.695312 C 369.539062 460.003906 372.414062 458.3125 375.273438 456.632812 C 375.984375 456.207031 376.710938 455.804688 377.40625 455.359375 L 379.476562 454.003906 C 380.855469 453.105469 382.230469 452.207031 383.601562 451.3125 C 394.445312 444.101562 404.867188 436.003906 414.570312 427.148438 C 424.214844 418.230469 433.097656 408.550781 441.039062 398.394531 C 449.207031 387.941406 456.265625 377.015625 462.15625 365.488281 C 468.078125 353.984375 473 341.972656 476.894531 329.320312 C 476.503906 330.535156 476 331.691406 475.542969 332.855469 C 475.074219 334.015625 474.609375 335.171875 474.140625 336.339844 C 473.183594 338.664062 472.304688 341.066406 471.117188 343.519531 C 469.976562 345.984375 468.769531 348.597656 467.4375 351.472656 C 466.007812 354.289062 464.390625 357.335938 462.609375 360.742188 C 475.675781 334.425781 483.597656 305.730469 485.96875 276.785156 L 486.3125 273.011719 L 486.476562 269.222656 L 486.785156 261.652344 C 486.816406 259.128906 486.761719 256.605469 486.75 254.085938 C 486.722656 251.5625 486.742188 249.042969 486.546875 246.53125 C 486.40625 244.070312 486.269531 241.59375 486.128906 239.109375 L 486.023438 237.246094 L 485.832031 235.386719 L 485.441406 231.667969 C 485.308594 230.433594 485.175781 229.195312 485.042969 227.960938 C 484.894531 226.730469 484.804688 225.496094 484.574219 224.28125 C 484.175781 221.84375 483.761719 219.425781 483.328125 217.042969 L 484.28125 224.921875 C 484.523438 227.558594 484.691406 230.199219 484.910156 232.839844 L 485.226562 236.796875 C 485.324219 238.117188 485.328125 239.445312 485.386719 240.769531 L 485.664062 248.710938 C 485.6875 251.359375 485.617188 254.011719 485.601562 256.660156 L 485.5625 260.636719 C 485.527344 261.960938 485.417969 263.28125 485.351562 264.605469 L 484.890625 272.542969 C 484.609375 275.179688 484.332031 277.8125 484.054688 280.445312 C 482.648438 292.121094 480.484375 303.710938 477.132812 314.964844 C 476.722656 316.371094 476.394531 317.804688 475.90625 319.191406 L 474.519531 323.367188 C 473.570312 326.144531 472.726562 328.960938 471.601562 331.675781 C 470.523438 334.40625 469.449219 337.144531 468.375 339.878906 C 467.167969 342.558594 465.960938 345.238281 464.75 347.921875 L 467.863281 340.628906 C 468.878906 338.183594 469.734375 335.679688 470.671875 333.207031 L 472.050781 329.488281 C 472.496094 328.242188 472.859375 326.972656 473.269531 325.714844 L 475.652344 318.152344 L 477.664062 310.492188 C 477.992188 309.214844 478.347656 307.945312 478.648438 306.664062 L 479.460938 302.792969 C 479.984375 300.210938 480.566406 297.644531 481.039062 295.058594 C 481.445312 292.460938 481.851562 289.863281 482.257812 287.269531 C 482.40625 286.292969 482.558594 285.328125 482.703125 284.382812 C 482.804688 283.429688 482.90625 282.492188 483.003906 281.566406 C 483.195312 279.722656 483.382812 277.941406 483.558594 276.214844 C 483.980469 272.765625 484.070312 269.519531 484.234375 266.472656 C 484.308594 264.953125 484.382812 263.480469 484.449219 262.050781 C 484.496094 261.335938 484.507812 260.632812 484.496094 259.9375 C 484.496094 259.242188 484.496094 258.558594 484.492188 257.886719 C 484.480469 255.195312 484.472656 252.664062 484.460938 250.261719 C 484.421875 247.871094 484.226562 245.609375 484.117188 243.4375 C 483.980469 241.261719 483.871094 239.175781 483.710938 237.148438 C 483.242188 233.097656 482.808594 229.257812 482.304688 225.34375 C 481.628906 221.484375 480.949219 217.472656 480.148438 213.179688 C 479.277344 208.898438 478.21875 204.351562 476.929688 199.414062 C 477.703125 202.921875 478.390625 206.503906 479.039062 210.070312 C 479.703125 213.636719 480.148438 217.210938 480.640625 220.675781 C 480.882812 222.414062 481.121094 224.136719 481.359375 225.84375 C 481.515625 227.558594 481.671875 229.257812 481.824219 230.941406 C 482.113281 234.304688 482.496094 237.601562 482.5625 240.851562 C 483.414062 257.324219 482.433594 273.945312 479.664062 290.289062 C 483.875 261.730469 482.757812 232.535156 476.378906 204.699219 C 475.535156 200.9375 474.5625 197.207031 473.546875 193.496094 C 473.394531 192.988281 472.804688 190.863281 472.203125 188.902344 C 471.585938 186.949219 471.003906 185.15625 470.941406 185.285156 C 470.8125 185.628906 471.320312 187.5625 471.914062 189.578125 C 472.46875 191.605469 473.121094 193.710938 473.265625 194.382812 C 474.949219 201.3125 476.398438 208.308594 477.410156 215.371094 L 478.792969 225.984375 L 479.640625 236.65625 C 479.730469 237.542969 479.746094 238.4375 479.769531 239.328125 L 479.847656 242.003906 L 480 247.355469 C 480.089844 249.136719 480.015625 250.921875 479.980469 252.703125 L 479.863281 258.058594 C 479.863281 260.699219 479.613281 263.332031 479.4375 265.96875 L 479.148438 269.917969 L 479.007812 271.894531 C 478.960938 272.554688 478.855469 273.207031 478.785156 273.863281 L 477.824219 281.730469 C 477.738281 282.382812 477.671875 283.039062 477.574219 283.691406 L 477.234375 285.644531 L 476.5625 289.550781 C 478.699219 276.023438 479.601562 262.34375 479.34375 248.699219 C 479.089844 235.050781 477.4375 221.484375 475.027344 208.085938 C 474.800781 206.851562 474.558594 205.621094 474.296875 204.390625 C 474.042969 203.160156 473.800781 201.929688 473.515625 200.707031 C 474.589844 206.894531 475.414062 212.382812 475.882812 217.34375 C 476.132812 219.816406 476.371094 222.152344 476.59375 224.363281 C 476.652344 224.917969 476.707031 225.464844 476.761719 226 C 476.8125 226.539062 476.824219 227.074219 476.855469 227.597656 C 476.910156 228.648438 476.964844 229.671875 477.015625 230.671875 C 477.121094 232.675781 477.222656 234.59375 477.320312 236.460938 C 477.34375 236.925781 477.367188 237.390625 477.394531 237.847656 C 477.394531 238.308594 477.394531 238.769531 477.394531 239.222656 C 477.398438 240.136719 477.402344 241.035156 477.40625 241.933594 C 477.386719 245.515625 477.527344 249.003906 477.273438 252.652344 C 477.496094 249.605469 476.933594 245.808594 476.722656 242.789062 L 476.332031 237.660156 L 475.695312 232.558594 C 475.289062 229.394531 474.980469 226.21875 474.382812 223.0625 C 473.828125 219.902344 473.371094 216.726562 472.757812 213.574219 C 470.097656 200.09375 466.113281 186.964844 460.910156 174.476562 C 459.519531 171.085938 457.992188 167.757812 456.425781 164.464844 C 454.925781 161.324219 452.9375 156.984375 451.164062 154.363281 C 451.613281 155.421875 452.132812 156.515625 452.664062 157.617188 C 453.183594 158.722656 453.691406 159.84375 454.15625 160.9375" fill="inherit"/><path d="M 526.636719 48.335938 C 525.023438 48.664062 523.410156 49.003906 521.800781 49.363281 L 519.386719 49.914062 C 518.585938 50.117188 517.804688 50.367188 517.011719 50.597656 C 515.4375 51.070312 513.863281 51.558594 512.296875 52.0625 C 510.734375 52.585938 509.152344 53.050781 507.625 53.660156 C 506.097656 54.269531 504.578125 54.894531 503.066406 55.535156 C 501.554688 56.175781 500.050781 56.828125 498.554688 57.496094 C 497.0625 58.175781 495.628906 58.972656 494.179688 59.722656 C 492.792969 60.457031 491.421875 61.203125 490.058594 61.960938 L 488.019531 63.101562 C 487.347656 63.492188 486.695312 63.929688 486.035156 64.34375 C 484.835938 65.117188 483.492188 65.648438 482.1875 66.238281 C 480.972656 66.789062 479.078125 67.296875 478.074219 68.160156 C 479.878906 66.625 481.769531 65.132812 483.714844 63.675781 C 484.6875 62.945312 485.675781 62.226562 486.675781 61.515625 C 487.6875 60.828125 488.730469 60.1875 489.769531 59.53125 C 491.851562 58.230469 493.96875 56.953125 496.089844 55.6875 C 498.222656 54.449219 500.421875 53.351562 502.570312 52.179688 C 490.605469 57.75 479.085938 64.015625 467.839844 70.519531 C 465.855469 71.574219 463.945312 72.742188 462.003906 73.859375 C 460.0625 74.980469 458.105469 76.078125 456.140625 77.152344 C 466.851562 69.425781 478.171875 62.378906 490.082031 56.128906 L 493.535156 54.335938 C 494.695312 53.753906 495.824219 53.109375 497.019531 52.59375 L 504.128906 49.328125 C 505.15625 48.875 506.175781 48.289062 507.257812 47.871094 C 508.335938 47.4375 509.433594 47.0625 510.539062 46.867188 C 512.9375 46.449219 515.367188 45.523438 517.707031 44.84375 L 517.25 44.863281 C 515.75 44.953125 514.0625 45.371094 512.605469 45.628906 C 510.71875 45.960938 508.835938 46.347656 506.957031 46.78125 C 504.550781 47.382812 502.210938 48.1875 499.863281 48.980469 C 497.527344 49.808594 495.171875 50.613281 492.933594 51.664062 C 490.671875 52.667969 488.425781 53.703125 486.1875 54.746094 L 484.511719 55.53125 C 483.957031 55.800781 483.417969 56.097656 482.871094 56.378906 L 479.601562 58.078125 C 465.96875 65.300781 452.988281 73.523438 440.105469 81.703125 C 440.78125 81.261719 441.417969 80.179688 441.988281 79.585938 C 442.679688 78.902344 443.394531 78.238281 444.117188 77.585938 C 445.929688 75.960938 447.925781 74.449219 449.636719 72.703125 C 450.144531 72.1875 450.671875 71.679688 451.21875 71.183594 C 451.777344 70.703125 452.363281 70.242188 452.957031 69.789062 C 454.144531 68.882812 455.386719 68.011719 456.652344 67.160156 C 459.183594 65.46875 461.773438 63.835938 464.316406 62.34375 L 468.671875 59.6875 L 470.851562 58.359375 L 471.945312 57.691406 L 473.0625 57.074219 L 482.058594 52.109375 C 487.816406 49.222656 493.296875 45.984375 499.222656 43.214844 L 502.476562 41.589844 L 504.09375 40.753906 L 505.738281 39.972656 C 492.453125 44.210938 479.636719 49.4375 467.230469 55.390625 C 464.152344 56.929688 461.027344 58.410156 457.988281 60.011719 C 455.171875 61.542969 452.503906 63.480469 449.769531 65.1875 C 448.292969 66.078125 446.890625 67.058594 445.464844 68.011719 L 441.195312 70.871094 C 439.78125 71.832031 438.324219 72.746094 436.941406 73.742188 L 432.777344 76.710938 L 427.023438 80.796875 L 421.40625 85.019531 C 419.542969 86.4375 417.625 87.796875 415.800781 89.253906 L 410.304688 93.589844 C 405.613281 96.507812 402.335938 99.199219 399.96875 100.136719 C 413.804688 89.296875 427.253906 77.605469 442.023438 67.578125 C 443.46875 66.59375 444.914062 65.609375 446.359375 64.625 C 447.808594 63.640625 449.324219 62.734375 450.808594 61.777344 L 455.285156 58.941406 L 457.523438 57.519531 C 458.28125 57.054688 459.058594 56.617188 459.820312 56.164062 L 469.054688 50.761719 C 472.210938 49.050781 475.363281 47.34375 478.515625 45.640625 C 479.648438 44.992188 480.859375 44.460938 482.050781 43.894531 L 485.628906 42.210938 L 490.746094 39.773438 C 491.882812 39.28125 493.273438 38.863281 494.320312 38.203125 C 494.4375 38.132812 494.570312 38.066406 494.671875 37.996094 C 493.824219 38.179688 492.957031 38.492188 492.097656 38.835938 C 491.234375 39.167969 490.386719 39.542969 489.59375 39.894531 L 484.460938 42.058594 C 482.871094 42.722656 481.292969 43.398438 479.71875 44.089844 C 478.15625 44.804688 476.644531 45.59375 475.117188 46.355469 L 470.5625 48.699219 L 468.296875 49.890625 C 467.550781 50.300781 466.820312 50.738281 466.085938 51.160156 L 457.324219 56.324219 L 448.8125 61.769531 C 446.480469 63.199219 444.261719 64.769531 442 66.285156 C 439.753906 67.816406 437.464844 69.308594 435.234375 70.855469 L 428.609375 75.5625 L 425.289062 77.902344 L 422.054688 80.320312 C 414.980469 83.761719 407.53125 88.789062 400.382812 94.179688 C 398.613281 95.550781 396.84375 96.921875 395.085938 98.28125 C 394.207031 98.96875 393.332031 99.648438 392.464844 100.328125 C 391.617188 101.027344 390.773438 101.722656 389.9375 102.414062 C 386.582031 105.164062 383.328125 107.828125 380.289062 110.320312 C 381.28125 109.148438 382.09375 108.230469 382.738281 107.496094 C 383.382812 106.761719 383.859375 106.199219 384.21875 105.757812 C 384.9375 104.878906 385.1875 104.484375 385.390625 104.140625 C 385.804688 103.453125 386.03125 102.976562 389.46875 99.207031 C 388.8125 99.777344 384.84375 103.242188 380.84375 106.734375 C 376.9375 110.300781 373 113.890625 372.242188 114.582031 C 371.535156 115.210938 370.730469 115.886719 370.097656 116.492188 C 369.457031 117.125 368.808594 117.761719 368.164062 118.398438 C 365.59375 120.9375 362.875 123.625 360.351562 126.117188 C 359.078125 127.402344 357.757812 128.734375 356.425781 130.078125 C 355.089844 131.425781 353.71875 132.835938 352.296875 134.21875 C 351.585938 134.910156 350.859375 135.613281 350.125 136.328125 C 349.398438 137.050781 348.664062 137.785156 347.914062 138.53125 C 346.410156 140.019531 344.84375 141.535156 343.191406 143.066406 C 345.222656 140.730469 347.023438 138.65625 348.605469 136.839844 C 350.1875 135.019531 351.738281 133.441406 353.046875 131.96875 C 355.695312 129.042969 357.882812 126.679688 360.09375 124.328125 C 362.640625 121.429688 363.902344 119.964844 366.398438 117.003906 C 365.246094 118.160156 362.246094 121.046875 359.25 123.929688 C 356.28125 126.835938 353.402344 129.804688 352.285156 130.960938 C 335.6875 148.46875 319.957031 167.039062 305.214844 185.867188 C 298.417969 194.507812 291.730469 203.332031 285.160156 212.074219 C 283.542969 214.1875 281.996094 216.359375 280.402344 218.460938 C 280.289062 218.621094 279.347656 219.941406 277.691406 222.261719 C 276.871094 223.421875 275.871094 224.832031 274.714844 226.472656 C 273.578125 228.125 272.285156 230.007812 270.851562 232.097656 C 269.421875 234.191406 267.851562 236.492188 266.148438 238.980469 C 253.324219 257.753906 241.648438 277.507812 229.714844 296.957031 C 228.457031 299.007812 225.488281 299.035156 224.183594 297.015625 C 221.417969 292.75 217.320312 287.070312 216.679688 286.007812 C 213.332031 280.484375 210.105469 274.894531 206.996094 269.234375 C 201.347656 258.953125 196.152344 248.4375 191.1875 237.808594 C 186.226562 228.144531 178.863281 220.65625 170.71875 216.257812 C 162.570312 211.882812 153.582031 210.65625 145.535156 213.933594 C 137.28125 217.289062 131.605469 224.839844 129.347656 234.5 C 127.054688 244.144531 128.289062 255.90625 133.628906 267.1875 L 133.671875 267.277344 C 133.695312 267.332031 133.9375 267.847656 134.390625 268.828125 C 142.894531 287.117188 152.121094 305.101562 162.714844 322.273438 C 172.546875 338.214844 183.566406 354.941406 196.898438 368.195312 C 200.597656 371.875 204.722656 375.15625 209.378906 377.542969 C 219.839844 382.902344 232.554688 383.34375 243.609375 379.355469 C 262.851562 372.421875 272.996094 353.785156 282.425781 336.9375 C 287.824219 327.292969 293.222656 317.648438 298.617188 308.007812 C 301.308594 303.199219 303.796875 298.199219 306.71875 293.53125 C 309.027344 289.835938 312.054688 286.511719 314.496094 282.796875 C 322.117188 271.195312 329.933594 259.691406 338.195312 248.535156 C 338.417969 248.238281 338.640625 247.9375 338.863281 247.640625 C 352.304688 229.59375 366.070312 211.539062 380.757812 194.90625 C 389.394531 184.988281 398.511719 175.449219 407.511719 165.972656 C 401.078125 170.550781 402.566406 169.589844 400.070312 170.332031 C 401.71875 168.585938 403.375 166.976562 405 165.402344 C 406.617188 163.824219 408.199219 162.28125 409.765625 160.753906 C 411.082031 159.511719 413.160156 157.738281 414.964844 156.15625 C 416.816406 154.53125 418.695312 152.882812 420.554688 151.246094 C 427.890625 145.035156 435.300781 138.816406 442.851562 133.019531 C 438.140625 136.238281 433.535156 139.65625 428.980469 143.167969 C 424.332031 147.042969 419.613281 150.824219 415.070312 154.898438 C 410.644531 158.675781 406.378906 162.699219 402.058594 166.65625 C 399.910156 168.65625 397.804688 170.714844 395.699219 172.765625 C 394.902344 173.542969 394.359375 174.472656 393.574219 175.273438 C 392.558594 176.289062 391.578125 177.351562 390.605469 178.417969 C 388.371094 180.839844 386.078125 183.324219 383.824219 185.765625 C 374.765625 196.027344 365.828125 206.742188 357.183594 217.5 C 348.3125 228.578125 339.417969 239.753906 330.371094 250.898438 C 338.027344 240.523438 345.722656 230.1875 353.695312 220.132812 L 356.664062 216.339844 C 357.652344 215.074219 358.675781 213.847656 359.679688 212.597656 L 365.722656 205.128906 C 369.847656 200.253906 373.886719 195.289062 378.113281 190.535156 L 381.203125 187.023438 L 382.746094 185.265625 L 384.308594 183.535156 C 386.859375 180.820312 388.121094 179.449219 390.609375 176.679688 C 392.753906 174.453125 394.902344 172.21875 397.046875 169.992188 C 398.339844 168.660156 398.988281 167.996094 400.28125 166.667969 C 400.9375 166.011719 401.265625 165.6875 401.917969 165.03125 C 402.546875 164.425781 402.863281 164.121094 403.492188 163.515625 C 405.558594 161.550781 407.734375 159.289062 409.5625 157.664062 C 418.578125 149.871094 427.617188 142.195312 436.964844 135.078125 L 426.847656 141.074219 C 430.113281 138.285156 433.378906 135.484375 436.664062 132.730469 C 422.234375 143.046875 408.324219 154.53125 394.902344 166.757812 C 403.726562 158.058594 412.734375 149.597656 422.113281 141.710938 C 425.296875 138.910156 428.609375 136.316406 431.875 133.65625 C 434.953125 131.085938 438.261719 128.933594 441.417969 126.554688 C 440.984375 126.878906 440.324219 127.039062 439.84375 127.328125 L 438.019531 128.449219 L 434.273438 130.695312 C 430.964844 133.300781 427.644531 135.910156 424.332031 138.519531 C 421.074219 141.226562 417.777344 143.875 414.550781 146.597656 C 412.90625 148.015625 411.21875 149.46875 409.539062 150.917969 C 407.960938 152.296875 406.296875 153.664062 404.679688 155.136719 C 403.117188 156.636719 401.53125 158.164062 399.878906 159.753906 C 398.222656 161.34375 396.484375 162.976562 394.726562 164.816406 C 396.523438 162.519531 398.421875 160.320312 400.160156 158.335938 C 401.9375 156.335938 403.722656 154.164062 405.382812 152.507812 C 407.335938 150.605469 409.3125 148.679688 411.285156 146.761719 C 412.28125 145.8125 413.257812 144.84375 414.269531 143.929688 C 415.285156 143.023438 416.300781 142.121094 417.300781 141.230469 C 419.3125 139.464844 421.335938 137.6875 423.390625 135.945312 C 425.480469 134.261719 427.570312 132.570312 429.664062 130.882812 C 430.710938 130.042969 431.746094 129.1875 432.804688 128.367188 C 433.867188 127.5625 434.929688 126.753906 435.988281 125.953125 C 438.097656 124.335938 440.195312 122.726562 442.28125 121.132812 C 444.453125 119.550781 446.570312 117.945312 448.640625 116.300781 C 449.679688 115.488281 450.6875 114.625 451.726562 113.832031 C 452.765625 113.03125 453.792969 112.222656 454.816406 111.398438 C 456.871094 109.773438 458.863281 108.023438 460.910156 106.355469 C 462.96875 104.695312 465.019531 102.980469 467.078125 101.195312 C 465.269531 102.21875 463.566406 103.175781 461.632812 104.265625 C 460.667969 104.816406 459.621094 105.355469 458.511719 106.027344 C 457.394531 106.695312 456.179688 107.425781 454.824219 108.238281 C 464.257812 100.675781 473.945312 93.398438 484.074219 86.859375 C 485.808594 85.644531 487.605469 84.585938 489.394531 83.484375 L 494.78125 80.183594 C 496.558594 79.152344 498.421875 78.230469 500.253906 77.238281 C 501.171875 76.746094 502.085938 76.25 502.988281 75.734375 C 503.890625 75.21875 504.777344 74.683594 505.671875 74.199219 C 504.609375 74.515625 503.585938 74.933594 502.558594 75.347656 L 499.480469 76.621094 L 496.429688 77.945312 C 495.410156 78.390625 494.402344 78.847656 493.417969 79.378906 C 491.4375 80.398438 489.46875 81.441406 487.511719 82.492188 C 486.535156 83.027344 485.542969 83.519531 484.585938 84.09375 L 481.714844 85.8125 C 479.59375 87.085938 477.453125 88.300781 475.3125 89.523438 C 473.210938 90.820312 471.09375 92.089844 468.964844 93.332031 L 465.761719 95.1875 L 462.601562 97.144531 C 460.484375 98.4375 458.359375 99.71875 456.21875 100.988281 L 461.738281 97.167969 C 463.585938 95.902344 465.394531 94.5625 467.289062 93.390625 C 471.054688 90.996094 474.746094 88.433594 478.578125 86.203125 C 480.015625 85.328125 481.351562 84.507812 482.609375 83.738281 C 483.234375 83.347656 483.84375 82.96875 484.429688 82.605469 C 485.027344 82.261719 485.609375 81.933594 486.167969 81.613281 C 488.414062 80.328125 490.367188 79.1875 492.128906 78.132812 C 493.871094 77.050781 495.480469 76.207031 496.996094 75.34375 C 498.511719 74.480469 499.949219 73.640625 501.414062 72.765625 C 502.144531 72.339844 502.875 71.867188 503.648438 71.4375 C 504.425781 71.015625 505.226562 70.578125 506.054688 70.128906 C 507.71875 69.226562 509.503906 68.261719 511.476562 67.230469 C 508.554688 68.269531 505.570312 69.449219 502.78125 70.59375 C 500.027344 71.882812 497.390625 73.125 494.847656 74.316406 C 493.226562 75.046875 491.65625 75.90625 490.074219 76.730469 L 485.324219 79.191406 C 484.535156 79.605469 483.730469 79.988281 482.949219 80.425781 L 480.617188 81.746094 L 475.9375 84.375 C 486.304688 77.355469 497.230469 71.144531 508.652344 65.847656 L 510.960938 64.753906 L 512.117188 64.207031 L 513.292969 63.722656 C 513.722656 63.546875 516.917969 62.289062 516.757812 62.09375 C 516.320312 61.570312 513.324219 63.011719 512.746094 63.191406 C 511.988281 63.410156 511.25 63.6875 510.507812 63.964844 L 503.839844 66.4375 L 501.613281 67.257812 L 499.429688 68.1875 L 495.058594 70.046875 C 493.609375 70.683594 492.132812 71.25 490.703125 71.941406 L 486.417969 74 L 483.246094 75.523438 C 482.1875 76.023438 481.128906 76.527344 480.101562 77.101562 L 473.886719 80.417969 C 484.21875 73.9375 495.042969 68.183594 506.4375 63.742188 L 509.597656 62.53125 C 506.839844 63.179688 504.40625 63.804688 502.222656 64.386719 C 501.679688 64.535156 501.148438 64.679688 500.632812 64.820312 C 500.128906 64.984375 499.636719 65.144531 499.15625 65.304688 C 498.199219 65.617188 497.292969 65.917969 496.433594 66.203125 C 492.96875 67.359375 490.058594 68.265625 486.972656 69.527344 C 488.277344 69.042969 489.59375 67.753906 490.808594 67.066406 L 494.894531 64.625 C 496.164062 63.863281 497.453125 63.121094 498.753906 62.390625 C 500.050781 61.644531 501.410156 61.042969 502.746094 60.363281 L 507.046875 58.210938 L 509.195312 57.109375 C 509.910156 56.734375 510.648438 56.429688 511.375 56.085938 C 514.292969 54.742188 517.195312 53.316406 520.128906 51.921875 L 524.957031 49.800781 C 526.496094 49.113281 528.691406 48.492188 530 47.449219 C 528.90625 47.628906 527.753906 48.105469 526.636719 48.335938" fill="inherit"/></g></svg>