<svg xmlns="http://www.w3.org/2000/svg" xmlns:xlink="http://www.w3.org/1999/xlink"
    data-name="Layer 1" height="160.7" preserveAspectRatio="xMidYMid meet" version="1.0"
    viewBox="0.4 -0.1 130.4 160.7" width="130.4" zoomAndPan="magnify">
    <g id="change1_1">
        <path
            d="M112.9,64.65c0-3.8-.09-5.21,0-7.81,0-2-.74-25.47-.79-29.81-.06-5.61-.82-22.19-.87-22.74-.24-3.22,4.58-3.83,5.54-1.53.51,1.23-1.39,53.33-1.37,54.73"
            fill="#1f7f95" />
    </g>
    <g id="change1_2">
        <path
            d="M15.55,5.13c.32-3.12,3.76-3.72,4.38.1.82,5,.72,43.42.84,45.59.06.94-2,4-2.19,4.85-.47,2.39-1.12,4.75-1.7,7.12Z"
            fill="#1f7f95" />
    </g>
    <g id="change2_1">
        <path
            d="M119.73,68.33c-9.57-.2-27,.46-46.34.11-12.88-.23-57.22-.56-59.57-.42-2.81.17-6.11,2-6.63,4.87-.6,3.37-.45,7-.62,10.41-.26,5.43-.22,10.62-.1,16.06.06,3.09,1.82,3.69,4.85,4,5.69.6,37.48,1.1,56,.67,28-.66,49.71.2,52.36-.85,0,0,4.45.12,4.71-6.43.26-6.79.21-16.91.17-23.68C124.54,69.91,122.44,68.38,119.73,68.33Z"
            fill="#32b48f" />
    </g>
    <path
        d="M17.22,41.56c0,.59-.14,10.76,0,13.5C17.28,56.51,17,62,17,62s1-5.44,1.65-7.18a33.6,33.6,0,0,0,1.27-7.41c.08-1.13-.69-34.2-.68-34.6a6.29,6.29,0,0,0-.05-2.12A3.92,3.92,0,0,1,19.67,9c0-1.08-.06-2.15-.14-3.23s-.6-3.06-2-2.54S16.15,5.79,16.11,7s.37,4.5.37,4.81C16.45,13.3,17.24,41.23,17.22,41.56Z"
        fill="none" />
    <g id="change3_1">
        <path
            d="M117.36,119.19c-1.45-.21-87.73-1.91-95.57-2.22-4.22-.17-13.47-.4-14.84,2.39-2.4,4.9-2.14,23.39-2,26.11S5.35,152,9,152.41c4.28.44,30.72,1.62,45.13,2,17.57.47,59,.4,62.1,0,2.71-.31,7-3.64,6.81-7.93-.17-3,.33-18.58.41-21.85S121,119.71,117.36,119.19Z"
            fill="#f4bf58" />
    </g>
    <path d="M17,62l0,.14Z" fill="none" />
    <path
        d="M110.12,108.66c-4,.24-83-.61-86.68-.62-.68,0-.63,3.26-.64,4.45,0,.58,84.43,1.48,88.4,1.42C110.88,113.31,110.68,108.63,110.12,108.66Z"
        fill="none" />
    <path
        d="M112.43,4.59c0,1.23,1,58.17,1,59,.45-1.34.88-2.69,1.2-4.07a21.32,21.32,0,0,0,.87-7.59c-.1-2.16.12-48.14,1.24-49.12h.12a1.49,1.49,0,0,0-.26-.48,2.27,2.27,0,0,0-1.87-.63,3.6,3.6,0,0,0-2.17.58A2,2,0,0,0,112,3.4a.13.13,0,0,0,0,.06C112.29,3.64,112.42,4,112.43,4.59Z"
        fill="none" />
    <g id="change4_1">
        <path
            d="M8.63,115.75c-1.28,0-3.06,1.17-4.09,3.79-.71,1.83-1.21,22.72-1.49,28.59-.1,2.21,1,5.42,3,6.11s3.77.47,5.84.64c14.37,1.17,50.73,2.48,54.92,2.31C85,156.5,113,157,121.3,156.28c3.84-.31,5-10,5-12.59.06-7,.24-22.59-.3-23.35-1.15-1.62-2.2-3.07-4.56-3.31C113.92,116.24,19.73,115.32,8.63,115.75Zm108.73,3.44c3.59.52,6.14,2.25,6.06,5.5s-.58,18.84-.41,21.85c.24,4.29-4.1,7.62-6.81,7.93-3.11.36-44.53.43-62.1,0-14.41-.4-40.85-1.58-45.13-2-3.62-.38-4-4.29-4.07-6.94S4.55,124.26,7,119.36c1.37-2.79,10.62-2.56,14.84-2.39C29.63,117.28,115.91,119,117.36,119.19Z"
            fill="#fff" />
    </g>
    <g id="change4_2">
        <path
            d="M125.35,67.07c-5.64-.67-13.41-.42-19.09-.26-6.77.2-13.36-.2-20.13-.14-8.06.08-35.57.22-41.23-.07C33.45,66,8.13,66,6.37,68.11c-1.27,1.53-1.89,7.8-1.93,14.57-.05,7-.21,10.37-.38,17.59,0,2.07,2.14,4.55,3.74,5.15,4.31,1.63,36.74.92,46.16.64,5-.15,51.92,0,56.53-.18,3.92-.19,10,.31,13.59-1.44,3-1.43,2.13-8.2,2.33-12.08.31-6-.11-12.3.12-17.83C126.59,73.11,126.87,67.25,125.35,67.07Zm-1,29.68c-.26,6.55-4.71,6.43-4.71,6.43-2.65,1-24.33.19-52.36.85-18.51.43-50.3-.07-56-.67-3-.31-4.79-.91-4.85-4-.12-5.44-.16-10.63.1-16.06.17-3.39,0-7,.62-10.41C7.71,70,11,68.19,13.82,68c2.35-.14,46.69.19,59.57.42,19.36.35,36.77-.31,46.34-.11,2.71,0,4.81,1.58,4.82,4.74C124.59,79.84,124.64,90,124.38,96.75Z"
            fill="#fff" />
    </g>
    <g id="change4_3">
        <path
            d="M106.38,135.82a19.65,19.65,0,0,0,5.36-.48c.56-.12.74-.28.36-.84-.58-.84-1.1-1.71-1.64-2.58-.27-.45-.36-.91.12-1.26s.9,0,1.17.37c.89,1.42,1.8,2.85,2.61,4.33a2.43,2.43,0,0,1-.29,2.69c-.86,1.21-1.78,2.38-2.68,3.56a.74.74,0,0,1-1.11.23.77.77,0,0,1-.13-1.16c.76-1,1.56-2.05,2.33-3.09.15-.21.44-.44.27-.72s-.47,0-.7.06a24.77,24.77,0,0,1-7.53.47c-.5,0-1-.23-.92-.84s.52-.81,1.07-.79l1.71,0"
            fill="#fff" />
    </g>
    <g id="change4_4">
        <path
            d="M83,141.16a1.54,1.54,0,0,1-1.41-1.52c-.08-3.13-.13-6.26-.19-9.4,0-.47.12-.93.65-.93s.68.47.69.93c0,2.42.06,4.83.12,7.25,0,.93-.31,2,1,2.48a.52.52,0,0,1,.15.74c-.22.4-.61.42-1,.45"
            fill="#fff" />
    </g>
    <g id="change4_5">
        <path
            d="M69,137.58c.82-1,1.51-1.83,2.21-2.65.34-.4.75-.82,1.27-.4s.12.91-.21,1.3a12.7,12.7,0,0,0-2.46,3.54.85.85,0,0,1-.89.62,1,1,0,0,1-.81-.74,43.78,43.78,0,0,0-1.62-4.31.67.67,0,0,1,.3-1c.39-.21.67.05.86.35A16.64,16.64,0,0,1,69,137.58"
            fill="#fff" />
    </g>
    <g id="change4_6">
        <path
            d="M58.6,138.37c0,.51-.13,1-.7,1s-.69-.42-.77-.86c-.23-1.32-.48-2.64-.65-4-.07-.56.33-1,.83-.69s.85.17,1.28-.12a2.4,2.4,0,0,1,1.89-.25c.37.08.64.28.61.71a.66.66,0,0,1-.59.64c-.68.13-1.49-.07-1.8.91a5.1,5.1,0,0,0-.14,2.23c0,.12,0,.23,0,.36"
            fill="#fff" />
    </g>
    <g id="change4_7">
        <path
            d="M51.65,135.62c0-.67.18-1.07.78-1.23a15.45,15.45,0,0,0,1.73-.61c.38-.14.7-.1.88.28a.66.66,0,0,1-.34,1c-1.59.26-1.31,1.46-1.29,2.54v.36c0,.48-.13.89-.67.92s-.68-.33-.75-.75c-.14-.86-.24-1.72-.34-2.49"
            fill="#fff" />
    </g>
    <g id="change4_8">
        <path
            d="M62.68,134.7c.23-.34.36-.86.92-.7s.57.61.56,1.06c0,1.27-.06,2.53-.11,3.8,0,.44-.13.9-.64,1s-.65-.42-.86-.78a13.77,13.77,0,0,1,.13-4.39"
            fill="#fff" />
    </g>
    <g id="change4_9">
        <path
            d="M63.4,132c-.48-.12-.76-.39-.63-.86s.14-1.2.86-1.23c.52,0,.73.42.68.9A1.24,1.24,0,0,1,63.4,132"
            fill="#fff" />
    </g>
    <g id="change4_10">
        <path
            d="M44.56,83.9c-.1,3-1,5.09-3.12,6.55a2.25,2.25,0,0,1-1.16.48c-.36,0-.71,0-.85-.44a.63.63,0,0,1,.44-.84c3.12-1.15,3.64-4.73,3.18-7.84-.29-2-1.08-2.83-2.86-3.22-.66-.15-.92,0-.87.76a67.72,67.72,0,0,0,.57,7.92c.1.55.15,1.24-.58,1.33s-.77-.57-.85-1.15c-.43-3.06-.32-6.16-.56-9.24a.92.92,0,0,1,1-1.12c2.78,0,5.1,1.08,5.5,4.48.1.9.11,1.82.14,2.33"
            fill="#fff" />
    </g>
    <g id="change4_11">
        <path
            d="M110.09,81.92,110,85.7c0,1.19-.06,2.38-.11,3.56,0,.67.09,1.56-.8,1.56s-.78-.88-.76-1.56c.06-1.86.11-3.72.16-5.58,0-.48,0-1,0-1.43,0-.67-.22-.82-.71-.41-.8.68-1.57,1.39-2.34,2.1-.39.36-.79.54-1.19.07a.83.83,0,0,1,.1-1.26c1.31-1.19,2.49-2.58,4.3-3a1.84,1.84,0,0,1,2,.44c1,1,2,1.92,3.06,2.88.36.33.69.7.33,1.21s-.9.37-1.3,0c-.86-.71-1.67-1.47-2.66-2.34"
            fill="#fff" />
    </g>
    <g id="change4_12">
        <path
            d="M68.53,82.87c0-.46.15-.93.73-1s.72.43.69.9c0,.91.19,1.36,1.17,1.05.42-.13.9-.05,1,.5s-.37.78-.84.91-1.17-.16-1.18.59a3.67,3.67,0,0,0,.64,2.59c.3.35.68.26,1-.13s.65-.64,1-.2a1,1,0,0,1-.08,1.3,2,2,0,0,1-3.24-.32A6.84,6.84,0,0,1,68.71,86c-.11-1-.12-2.06-.18-3.15"
            fill="#fff" />
    </g>
    <g id="change4_13">
        <path
            d="M79.71,86.06a5.4,5.4,0,0,1-1,3.21,2,2,0,0,1-3.34.33C74.08,88.31,74,86.65,74.18,85a.61.61,0,0,1,.63-.58c.47,0,.64.39.68.81a9.46,9.46,0,0,0,.15,2.12c.22.68.4,1.49,1.24,1.51s1-.8,1.19-1.41a11,11,0,0,0,.37-2.09c.06-.54-.08-1.25.72-1.19s.57.7.57,1.21c0,.2,0,.4,0,.72"
            fill="#fff" />
    </g>
    <g id="change4_14">
        <path
            d="M81.51,85.18c.15-.78-.17-1.75.4-1.82,1-.1,1.76-.91,2.76-.62a.74.74,0,0,1,.62.75.6.6,0,0,1-.6.6c-1.11,0-1.24.93-1.32,1.74-.1,1-.06,2-.08,3.08,0,.5-.05,1-.66,1.06s-.74-.49-.78-1c-.13-1.33-.24-2.67-.34-3.8"
            fill="#fff" />
    </g>
    <g id="change4_15">
        <path
            d="M64,89.86c-.48-.07-.65-.39-.7-.82a39.1,39.1,0,0,0-.74-4.69.74.74,0,0,1,.26-.84.53.53,0,0,1,.82.11c.32.49.59.22.94.06a2.46,2.46,0,0,1,1.58-.19.73.73,0,0,1,.69.8.64.64,0,0,1-.74.59c-1.27-.17-1.36.68-1.36,1.63s0,1.66,0,2.5c0,.48-.21.84-.73.85"
            fill="#fff" />
    </g>
    <g id="change4_16">
        <path
            d="M24.4,128.22c0-.74-.59-1.07-1.28-1.11L20,126.93a25.66,25.66,0,0,0-4.8,0c-1.83.21-2.66,1.16-2.56,3.07a50.85,50.85,0,0,1,.1,6.76,8.66,8.66,0,0,0,.11,1.9,1.4,1.4,0,0,0,1.5,1.43c1,0,2.07.21,3.09.12,1.78-.17,3.59.24,5.35-.35a1.67,1.67,0,0,0,1.33-1.43A61.94,61.94,0,0,0,24.4,128.22Zm-8.9,2.12c0-.37.12-.73.56-.77s.63.26.64.66.26.84.64.81.29-.56.3-.88a2.86,2.86,0,0,1,.07-.9.68.68,0,0,1,.88-.41.65.65,0,0,1,.48.72c0,.43-.05.53-.12,1.2,0,0,0,.8,0,1,0,.41.35.9,1,1.74.3.38,1,.76.47,1.35s-1,0-1.45-.37c-1-1-2-1.94-3-2.9A1.4,1.4,0,0,1,15.5,130.34Zm5.4,6.58c-.73,0-1.59.09-2.38.12s-2.25.06-2.82,0c-.26,0-.52,0-.54-.37,0-.25.25-.33.47-.38a23.56,23.56,0,0,1,5.3-.41.45.45,0,0,1,.49.52A.48.48,0,0,1,20.9,136.92Z"
            fill="#fff" />
    </g>
    <g id="change4_17">
        <path
            d="M49.43,133.34a11.69,11.69,0,0,0-.8-3,1.31,1.31,0,0,0-1.29-.8.75.75,0,0,0-.79.55c-.9,2.64-1.81,5.29-2.7,7.93-.16.5-.12,1,.42,1.2s.78-.29.9-.78.25-.75.32-1.13c.16-.81.56-1.07,1.37-1,1.94.17,1.67-.18,2,1.88,0,.35.07.71.12,1.06s.23.91.75.87.63-.49.67-1C50.09,137.23,49.77,135.29,49.43,133.34ZM47.31,135c-.69-.06-1-.14-.66-.94s.55-1.45.82-2.18h.25c.15.69.27,1.38.45,2.06C48.39,134.75,48.18,135,47.31,135Z"
            fill="#fff" />
    </g>
    <g id="change4_18">
        <path
            d="M77.67,133.79a2.06,2.06,0,0,0-2-.68c-.54.06-1,.27-1,.92s.52.74,1.1.56c.84-.24,1.21.44,1.44,1s-.49.53-.76.77-.41.22-.59.37a2.65,2.65,0,0,0-.31,3.17,2,2,0,0,0,2.53-.05,2.38,2.38,0,0,0,1-2.28A5.07,5.07,0,0,0,77.67,133.79Zm-.81,5.09c-.29,0-.28-.32-.27-.56,0-.53.47-.68.87-.78s.29.24.33.42C77.64,138.49,77.38,138.88,76.86,138.88Z"
            fill="#fff" />
    </g>
    <g id="change4_19">
        <path
            d="M25.45,78.15A34.22,34.22,0,0,0,21.68,78a33.54,33.54,0,0,0-5.3.23c-1.54.25-1.58.83-1.61,2.4-.06,2.47,0,3.57,0,6.19A15.31,15.31,0,0,0,15,90a1.79,1.79,0,0,0,1.31,1.33,38.89,38.89,0,0,0,8,0c1.72-.19,2.17-.75,2.26-2.56.15-3,.14-5.45.15-8.43C26.71,79.23,26.28,78.22,25.45,78.15Zm-2.68,10c-.68,0-1.72,0-2.53-.08s-1.5-.06-2.1-.1c-.28,0-.79,0-.83-.4s.44-.54.76-.57c.15,0,3.81.26,4.53.29S23.41,88.2,22.77,88.2Zm.86-5.66a8.45,8.45,0,0,1-2.75,2.26,5.57,5.57,0,0,1-1.73.89,4.1,4.1,0,0,1-2.32-.37c-.19-.11-.41-.3-.34-.57s.36-.22.58-.19.72.08.91.08.68-.65.68-.65-.64-.19-.83-.28c-.39-.19-.93-.4-.75-.88s.85-.35,1.2-.12a2.83,2.83,0,0,0,1.77.26,2.34,2.34,0,0,0,1.52-.72c1.25-1.06,1.93-1.32,2.24-.91A1.07,1.07,0,0,1,23.63,82.54Z"
            fill="#fff" />
    </g>
    <g id="change4_20">
        <path
            d="M90.24,87.84a1.77,1.77,0,0,1-2.38-.64,4.22,4.22,0,0,0,2.64-.7c.61-.43,1.19-.93,1-1.83a1.8,1.8,0,0,0-1.61-1.32,2.71,2.71,0,0,0-3.17,1.29,3.57,3.57,0,0,0,.37,3.89,3.12,3.12,0,0,0,3.6.67c.45-.22,1-.49.79-1.12S90.73,87.64,90.24,87.84Zm-2.32-2.46c.49-.91,1.25-.67,2.07-.53-.14.67-.69.67-1.11.84C88,86,87.88,86,87.92,85.38Z"
            fill="#fff" />
    </g>
    <g id="change4_21">
        <path
            d="M52.78,83.89c-1.61-.06-2.41.53-2.09,1.67.55,1.92.42,3.91.73,5.85.09.58.13,1.23.85,1.14s.61-.77.56-1.33c0-.19-.08-.38-.12-.58-.14-.63,0-1,.72-1.1a2.9,2.9,0,0,0,2.1-3.23A2.61,2.61,0,0,0,52.78,83.89ZM53.45,88c-.47.3-1,.46-1-.43a3.88,3.88,0,0,1-.09-.94c.1-.47-.51-1.34.56-1.32.82,0,1.23.54,1.22,1.4A1.44,1.44,0,0,1,53.45,88Z"
            fill="#fff" />
    </g>
    <g id="change4_22">
        <path
            d="M60.87,85.18a2.37,2.37,0,0,0-4.14-.84.8.8,0,0,0-.15,1.07.62.62,0,0,0,1,.07,2.33,2.33,0,0,1,1-.57c.51-.12.79.15,1,.62s-.29.51-.57.61a3.86,3.86,0,0,0-1.31.7A2.32,2.32,0,0,0,57,89.43c.19.68.48,1.27,1.25,1.39a2.12,2.12,0,0,0,2.2-1.18,4.62,4.62,0,0,0,.72-2.28A11.19,11.19,0,0,0,60.87,85.18ZM59.66,88a1.77,1.77,0,0,1-1,1.35c-.41-.09-.46-.41-.46-.72,0-.75.57-1,1.13-1.11C59.68,87.47,59.71,87.78,59.66,88Z"
            fill="#fff" />
    </g>
    <g id="change4_23">
        <path
            d="M49.09,89.27a2.35,2.35,0,0,1-2.24-1l.63-.06a1.74,1.74,0,0,0,1.83-1.73A1.53,1.53,0,0,0,48,84.77a1.68,1.68,0,0,0-2.23,1.1,3.42,3.42,0,0,0,0,3.3,3.62,3.62,0,0,0,3.41,1.54c.49,0,1-.22,1-.79S49.58,89.25,49.09,89.27Zm-1.58-3.15c.18,0,.39.06.38.31s-.19.19-.13.2c-.4,0-.59-.1-.59-.33S47.37,86.12,47.51,86.12Z"
            fill="#fff" />
    </g>
    <g id="change5_1">
        <path
            d="M129.76,66.16c-1.43-2.79-11.85-1.38-11.88-2.07-.3-5.46-.16-10.93,0-16.38.2-8,.32-16,.64-24,.12-2.81.18-18.66.18-18.93a5.17,5.17,0,0,0-.85-3.56A3.86,3.86,0,0,0,114.71,0a5.07,5.07,0,0,0-3.35,1.06,4.92,4.92,0,0,0-1.15,3.14,2.27,2.27,0,0,0-.12.75c0,1,.19,24.53.53,32.1.22,5.07.35,10.13.11,15.22-.19,4.09.2,8.21.33,12.36-2,0-79.26-1.2-88.33-.85-.54,0-.76-.08-.79-.76-.29-6.26.43-26.55.34-30.42-.1-4.9-.64-20.75-.68-23.76,0-.4,0-2.44-.13-3C21.19,4,21,2.67,19.73,1.72a3.28,3.28,0,0,0-4,.38A6,6,0,0,0,14.2,6.31c0,1.34-.07,4.43-.07,4.69.07,3.69.06,7.38.23,11.06.27,6.08.14,12.17.45,18.26.38,7.54,0,15.13,0,22.7,0,1-.24,1.22-1.07,1.13a16.92,16.92,0,0,0-6.78.68,5.24,5.24,0,0,0-4,4,61.75,61.75,0,0,0-.88,13c.21,6.37-1.12,20.61-.15,21.71s3.76,4.31,5.43,4.45c2.51.21,5.33.72,7.86.42.56-.07.2,3.45.77,4.87-3.44.34-10.52.91-10.68,1-1.69.82-3.15,1.94-3.49,4A62.86,62.86,0,0,0,.7,129.83c-.07,6-.08,11.11-.28,17,0,.79,0,5.73.89,7.31,1.13,1.91,3.61,2.55,4.5,3.33,0,0,9.17.35,10.29.31a179.83,179.83,0,0,1,19.7.31c3.59.28,37.52,1.25,46.05,1.41,28,.49,34,1.1,40.49-1.08,2.37-.8,6.32-4.17,6.36-4.77l.35-6.85c.1-.66.11-4.56.11-4.8,0-2.38-.08-4.76,0-7.14.06-4.58.26-14.33.09-14.6-.62-1-2.51-4.3-3.15-4.72s-5.78-1.06-7.42-1.24c-.25,0-.74.18-.68-.48.13-1.55-.25-5.71.56-5.8,1.49-.15,3,0,4.47-.1,1.13,0,2.4.26,3.35-.41a15.83,15.83,0,0,0,2.76-2.3,3.11,3.11,0,0,0,.86-2c.41-7.37.23-14.75.24-22.12C130.19,78.1,130.84,68.27,129.76,66.16ZM112,3.4a2,2,0,0,1,.5-1.14,3.6,3.6,0,0,1,2.17-.58,2.27,2.27,0,0,1,1.87.63,1.49,1.49,0,0,1,.26.48h-.12c-1.12,1-1.34,47-1.24,49.12a21.32,21.32,0,0,1-.87,7.59c-.32,1.38-.75,2.73-1.2,4.07,0-.81-1-57.75-1-59,0-.6-.14-.95-.4-1.13A.13.13,0,0,1,112,3.4ZM16.11,7c0-1.22,0-3.25,1.39-3.78s2,1.58,2,2.54.11,2.15.14,3.23a3.92,3.92,0,0,0-.47,1.68,6.29,6.29,0,0,1,.05,2.12c0,.4.76,33.47.68,34.6a33.6,33.6,0,0,1-1.27,7.41C18.06,56.55,17,62,17,62l0,.14L17,62s.27-5.48.2-6.93c-.13-2.74,0-12.91,0-13.5,0-.33-.77-28.26-.74-29.74C16.48,11.51,16.08,8.24,16.11,7ZM121.44,117c2.36.24,3.41,1.69,4.56,3.31.54.76.36,16.38.3,23.35,0,2.55-1.16,12.28-5,12.59-8.27.67-36.32.22-54.46.91-4.19.17-40.55-1.14-54.92-2.31-2.07-.17-3.77.06-5.84-.64s-3.13-3.9-3-6.11c.28-5.87.78-26.76,1.49-28.59,1-2.62,2.81-3.74,4.09-3.79C19.73,115.32,113.92,116.24,121.44,117ZM22.8,112.49c0-1.19,0-4.45.64-4.45,3.71,0,82.64.86,86.68.62.56,0,.76,4.65,1.08,5.25C107.23,114,22.8,113.07,22.8,112.49Zm103.73-38c-.23,5.53.19,11.79-.12,17.83-.2,3.88.63,10.65-2.33,12.08-3.58,1.75-9.67,1.25-13.59,1.44-4.61.23-51.57,0-56.53.18-9.42.28-41.85,1-46.16-.64-1.6-.6-3.78-3.08-3.74-5.15.17-7.22.33-10.6.38-17.59,0-6.77.66-13,1.93-14.57C8.13,66,33.45,66,44.9,66.6c5.66.29,33.17.15,41.23.07,6.77-.06,13.36.34,20.13.14,5.68-.16,13.45-.41,19.09.26C126.87,67.25,126.59,73.11,126.53,74.53Z"
            fill="#010101" />
    </g>
    <g id="change5_2">
        <path
            d="M32.63,73.32c.22.07.14,0,.28.19s.08.46.09.35c-.08,1.59-.06,3.17-.09,4.75l-.12,7,0,.66c-.16,4.32,0,8.64-.26,13a.57.57,0,0,1-.24.4.49.49,0,0,1-.71-.45c.42-8.34.23-16.78.48-25.29,0-.36,0-.31.11-.42a.41.41,0,0,1,.48-.18ZM33,74Zm0,0c.05-.11,0,0,0,0Z"
            fill="#010101" fill-rule="evenodd" />
    </g>
    <g id="change5_3">
        <path
            d="M31.33,122.36c.22.07.15,0,.28.19s.08.46.09.35c-.08,1.59-.06,3.17-.09,4.75l-.12,7s0,.34,0,.66c-.16,4.32,0,8.64-.26,13a.6.6,0,0,1-.24.41.5.5,0,0,1-.71-.46c.42-8.34.23-16.78.48-25.29,0-.36,0-.31.11-.42a.41.41,0,0,1,.48-.18Zm.34.67Zm0,0c0-.11,0,0,0,0Z"
            fill="#010101" fill-rule="evenodd" />
    </g>
    <g id="change5_4">
        <path
            d="M98.13,73.67c.2.06.13,0,.27.18s.08.46.09.35c-.08,1.58-.07,3.17-.1,4.75,0,2.33-.07,4.66-.11,7,0,0,0,1-.06,1.81-.11,3.93,0,7.9-.22,11.85,0,0-.09.44-.44.47a.52.52,0,0,1-.52-.52c.44-8.47.25-17,.49-25.29,0-.8.49-.61.6-.59Zm.33.64Z"
            fill="#010101" fill-rule="evenodd" />
    </g>
    <g id="change5_5">
        <path
            d="M96.43,122.85c.2.06.13,0,.27.18s.08.46.09.35c-.08,1.58-.06,3.16-.09,4.75l-.12,7s0,1-.06,1.8c-.11,4,0,7.91-.22,11.86,0,0-.09.44-.43.47a.52.52,0,0,1-.52-.52c.43-8.47.24-17,.48-25.29,0-.8.5-.61.6-.59Zm.34.64Z"
            fill="#010101" fill-rule="evenodd" />
    </g>
</svg>