<svg xmlns="http://www.w3.org/2000/svg" xmlns:xlink="http://www.w3.org/1999/xlink" fill="#000000" height="29" preserveAspectRatio="xMidYMid meet" version="1" viewBox="1.5 1.5 29.0 29.0" width="29" zoomAndPan="magnify"><g data-name="Layer 100"><g id="change1_1"><circle cx="16" cy="16" fill="#ffde59" r="14.5"/></g><g id="change2_1"><path d="M16.991,19.268l1.9-1.708a10.956,10.956,0,0,0,2.049-2.369,4.9,4.9,0,0,0,.688-2.564A4.562,4.562,0,0,0,20.012,8.9a6.306,6.306,0,0,0-4.144-1.3,5.659,5.659,0,0,0-3.854,1.371,5.167,5.167,0,0,0-1.826,3.3.4.4,0,0,0,.286.436l3.091.889a.4.4,0,0,0,.5-.3,2.547,2.547,0,0,1,.7-1.354,1.641,1.641,0,0,1,1.182-.479,1.505,1.505,0,0,1,1.087.363,1.339,1.339,0,0,1,.372,1.015,1.668,1.668,0,0,1-.3.944A6.933,6.933,0,0,1,16,14.986l-5.591,5.2a.4.4,0,0,0-.128.293v2.293a.4.4,0,0,0,.4.4H21.415a.4.4,0,0,0,.4-.4v-3.1a.4.4,0,0,0-.4-.4Z" fill="#ffffff"/></g></g></svg>