<svg xmlns="http://www.w3.org/2000/svg" xmlns:xlink="http://www.w3.org/1999/xlink" fill="#000000" height="29" preserveAspectRatio="xMidYMid meet" version="1" viewBox="1.5 1.5 29.0 29.0" width="29" zoomAndPan="magnify"><g data-name="Layer 101"><g id="change1_1"><circle cx="16" cy="16" fill="#545454" r="14.5"/></g><g id="change2_1"><path d="M15.509,8.4a.4.4,0,0,0-.184.044l-4.4,2.27a.4.4,0,0,0-.2.465l.824,2.893a.4.4,0,0,0,.217.253.4.4,0,0,0,.334,0l2.476-1.136V23.2a.4.4,0,0,0,.4.4h3.455a.4.4,0,0,0,.4-.4V8.8a.4.4,0,0,0-.4-.4Z" fill="#ffffff"/></g></g></svg>