<svg xmlns="http://www.w3.org/2000/svg" xmlns:xlink="http://www.w3.org/1999/xlink" fill="#000000" height="29" preserveAspectRatio="xMidYMid meet" version="1" viewBox="1.5 1.5 29.0 29.0" width="29" zoomAndPan="magnify"><g data-name="Layer 99"><g id="change1_1"><circle cx="16" cy="16" fill="#ff5757" r="14.5"/></g><g id="change2_1"><path d="M18.884,14.127l2.566-2.759a.4.4,0,0,0,.107-.273V8.8a.4.4,0,0,0-.4-.4H10.8a.4.4,0,0,0-.4.4v3.117a.4.4,0,0,0,.4.4h4.957l-1.867,2.366a.4.4,0,0,0-.071.357l.574,2.02a.4.4,0,0,0,.566.247,2.5,2.5,0,0,1,1.142-.233,1.777,1.777,0,0,1,1.329.48,1.636,1.636,0,0,1-.022,2.327,1.87,1.87,0,0,1-1.379.494,1.919,1.919,0,0,1-1.407-.619,2.88,2.88,0,0,1-.8-1.534.4.4,0,0,0-.5-.313l-3.086.882a.4.4,0,0,0-.285.451,5.939,5.939,0,0,0,1.935,3.495A6.242,6.242,0,0,0,16.246,24.2a5.781,5.781,0,0,0,4.135-1.581,5.169,5.169,0,0,0,1.679-3.9A4.684,4.684,0,0,0,21,15.59,4.9,4.9,0,0,0,18.884,14.127Z" fill="#ffffff"/></g></g></svg>