<svg version="1.0" xmlns="http://www.w3.org/2000/svg" width="40.000000pt" height="40.000000pt"
 viewBox="0 0 380.000000 360.000000" preserveAspectRatio="xMidYMid meet">
    <g transform="translate(0.000000,360.000000) scale(0.100000,-0.100000)" fill="#FFFFFF" stroke="none">
        <path d="M2016 3578 c-9 -12 -16 -37 -16 -55 0 -27 -4 -34 -27 -39 -289 -64 -508 -202 -674 -424 -60 -81 -135 -242 -166 -355 -24 -89 -27 -118 -27 -265 0 -146 3 -176 27 -262 50 -187 130 -329 265 -470 141 -146 305 -243 500 -295 84 -23 118 -26 257 -27 182 -1 271 17 425 83 486 209 743 755 596 1263 -27 93 -84 228 -96 228 -4 0 -37 -40 -73 -89 l-66 -90 20 -51 c49 -129 63 -320 35 -457 -69 -328 -318 -586 -639 -663 -112 -27 -282 -27 -395 0 -317 76 -569 334 -638 652 -20 94 -20 262 0 356 63 290 284 539 562 630 113 37 114 37 114 -3 0 -33 27 -75 49 -75 9 0 219 147 254 178 39 34 19 62 -112 160 -68 50 -131 92 -142 92 -10 0 -25 -10 -33 -22z" />
        <path d="M2330 3482 c1 -4 25 -24 55 -45 73 -50 74 -74 4 -124 l-51 -37 58 -16 c73 -20 161 -60 221 -100 25 -17 49 -32 54 -33 5 -1 36 34 68 78 l59 80 -47 33 c-53 38 -183 103 -256 127 -71 23 -165 44 -165 37z" />
        <path d="M3050 3427 c-29 -15 -29 -15 -505 -662 -202 -275 -370 -501 -373 -502 -4 -1 -77 108 -162 244 -85 135 -164 251 -175 259 -35 25 -93 18 -126 -15 -57 -58 -53 -69 171 -420 110 -173 207 -322 216 -332 24 -27 76 -34 111 -15 18 9 73 74 135 158 58 79 270 367 472 642 202 274 371 509 376 521 14 38 -7 93 -43 115 -37 23 -62 25 -97 7z" />
        <path d="M3443 1831 c-17 -5 -49 -19 -71 -32 -22 -13 -185 -182 -363 -376 l-324 -351 -17 32 c-23 44 -90 104 -147 130 -44 20 -62 21 -467 24 l-421 3 -79 78 c-164 161 -382 222 -603 170 -67 -17 -181 -73 -240 -119 -28 -22 -53 -40 -56 -40 -3 0 -5 20 -5 45 0 32 -6 51 -20 65 -19 19 -33 20 -299 20 -266 0 -279 -1 -305 -21 l-26 -20 0 -700 c0 -686 0 -699 20 -719 19 -19 33 -20 303 -20 345 0 327 -6 327 115 0 46 3 86 8 88 4 2 174 -27 377 -65 204 -38 388 -69 410 -69 58 -1 1276 140 1301 151 28 11 991 1175 1023 1236 91 170 -30 371 -228 380 -36 2 -80 -1 -98 -5z m183 -174 c27 -29 34 -45 34 -78 0 -22 -5 -50 -11 -62 -7 -11 -76 -98 -153 -192 -78 -93 -256 -309 -396 -479 -437 -530 -411 -501 -449 -504 -19 -2 -298 -34 -619 -72 l-585 -68 -376 69 c-207 38 -386 71 -398 74 l-23 5 0 396 0 395 80 79 c129 127 256 178 410 167 151 -11 273 -78 370 -202 l52 -65 437 0 c433 0 437 0 481 -22 82 -42 103 -137 44 -199 l-27 -28 -404 -3 -405 -3 -19 -24 c-25 -30 -24 -66 1 -91 19 -19 33 -20 452 -20 l431 0 56 58 c31 31 229 245 441 476 211 230 394 422 405 427 11 5 47 7 79 6 53 -3 62 -7 92 -40z m-3106 -917 l0 -600 -190 0 -190 0 0 600 0 600 190 0 190 0 0 -600z" />
    </g>
</svg>
