<svg version="1.0" xmlns="http://www.w3.org/2000/svg"
 width="40.000000pt" height="40.000000pt" viewBox="0 0 348.000000 336.000000"
 preserveAspectRatio="xMidYMid meet">
    <g transform="translate(0.000000,336.000000) scale(0.100000,-0.100000)"
        fill="#FFFFFF" stroke="none">
        <path d="M2270 3351 c-76 -24 -141 -81 -176 -156 -32 -69 -35 -204 -4 -235 25 -25 61 -26 91 -2 19 16 23 32 28 98 7 92 26 129 76 150 45 18 79 18 122 -3 70 -33 73 -47 73 -326 l0 -248 -32 -30 c-54 -49 -129 -72 -238 -72 -143 -1 -236 32 -298 105 -43 51 -123 25 -121 -39 0 -16 40 -161 88 -323 48 -162 85 -299 81 -303 -4 -4 -56 -6 -115 -5 l-109 3 -227 504 c-124 277 -239 520 -254 539 -39 48 -104 75 -169 70 -64 -6 -700 -289 -760 -339 -47 -39 -69 -88 -69 -155 0 -43 18 -90 127 -332 69 -155 126 -284 126 -287 0 -3 -80 -5 -178 -5 -169 0 -180 -1 -198 -21 -18 -20 -19 -46 -19 -703 0 -755 -2 -730 67 -875 71 -149 213 -269 388 -327 52 -18 118 -19 1109 -22 1155 -3 1143 -3 1272 56 174 80 302 232 350 420 18 71 19 116 19 751 0 596 -2 679 -16 699 -13 19 -24 22 -90 22 -67 0 -75 2 -70 18 3 9 43 148 90 309 47 160 86 301 86 312 0 30 -35 61 -70 61 -21 0 -39 -11 -65 -39 -96 -103 -320 -130 -472 -55 -92 44 -93 48 -93 334 0 236 -1 247 -24 295 -57 122 -204 193 -326 156z m-1126 -430 c14 -16 436 -940 436 -956 0 -3 -206 -4 -457 -3 l-458 3 -138 309 c-127 284 -138 310 -127 336 10 24 38 40 178 104 92 41 241 109 332 150 91 41 177 75 191 75 14 1 33 -7 43 -18z m1338 -716 l-3 -245 -182 2 -182 3 -67 225 c-37 123 -65 226 -64 228 2 1 15 -2 30 -7 14 -6 66 -16 114 -22 105 -13 204 -1 291 35 31 13 58 24 61 25 3 1 4 -109 2 -244z m243 207 c59 -22 87 -25 180 -25 67 0 131 7 165 16 30 8 55 15 56 14 0 -1 -29 -103 -65 -227 l-66 -225 -185 0 -185 0 -3 244 c-2 229 -1 243 15 236 10 -5 50 -20 88 -33z m455 -1212 c0 -682 0 -688 -57 -793 -57 -103 -153 -185 -271 -230 l-57 -22 -1047 -3 c-1142 -3 -1116 -4 -1230 54 -104 53 -201 167 -241 287 -21 60 -22 80 -25 686 -2 343 -1 629 1 636 4 8 365 11 1466 11 l1461 0 0 -626z"/>
        <path d="M510 2600 c-41 -41 -10 -120 47 -120 30 0 73 42 73 70 0 29 -44 70 -75 70 -14 0 -34 -9 -45 -20z"/>
        <path d="M1630 1534 c-143 -39 -252 -159 -254 -283 -1 -47 2 -56 26 -74 23 -17 33 -19 55 -11 30 10 45 36 63 101 22 85 138 155 228 138 144 -27 217 -157 156 -277 -18 -34 -86 -74 -169 -99 -39 -12 -69 -27 -75 -39 -5 -10 -10 -68 -10 -129 0 -124 12 -151 69 -151 48 0 71 39 71 119 l0 66 75 34 c93 41 165 114 186 188 56 194 -66 384 -273 423 -65 13 -81 12 -148 -6z"/>
        <path d="M1676 549 c-48 -38 -22 -119 39 -119 31 0 75 41 75 70 0 26 -43 70 -68 70 -11 0 -31 -9 -46 -21z"/>
    </g>
</svg>
