<svg version="1.0" xmlns="http://www.w3.org/2000/svg"
 width="40.000000pt" height="40.000000pt" viewBox="0 0 100.000000 100.000000"
 preserveAspectRatio="xMidYMid meet">
    <g transform="translate(0.000000,100.000000) scale(0.100000,-0.100000)"
        fill="#FFFFFF" stroke="none">
        <path d="M370 846 c-79 -21 -140 -59 -198 -121 -67 -71 -102 -139 -83 -158 10 -9 15 -8 25 7 109 179 179 229 336 243 137 12 261 -38 361 -145 l63 -67 -64 -5 c-49 -4 -65 -9 -65 -20 0 -12 19 -16 98 -18 l98 -3 -3 98 c-2 79 -6 98 -18 98 -11 0 -16 -14 -18 -57 l-3 -56 -68 68 c-126 125 -305 179 -461 136z" />
        <path d="M0 300 l0 -140 140 0 140 0 0 140 0 140 -140 0 -140 0 0 -140z" />
        <path d="M360 300 l0 -140 140 0 140 0 0 140 0 140 -140 0 -140 0 0 -140z 240 0 l0 -100 -100 0 -100 0 0 100 0 100 100 0 100 0 0 -100z" />
        <path d="M720 300 l0 -140 140 0 140 0 0 140 0 140 -140 0 -140 0 0 -140z" />
    </g>
</svg>