<svg version="1.0" xmlns="http://www.w3.org/2000/svg"
 width="40.000000pt" height="40.000000pt" viewBox="0 0 512.000000 512.000000"
 preserveAspectRatio="xMidYMid meet">
    <g transform="translate(0.000000,512.000000) scale(0.100000,-0.100000)"
        fill="#FFFFFF" stroke="none">
        <path d="M2479 5091 c-57 -37 -632 -616 -653 -658 -35 -70 -5 -157 66 -192 40 -19 61 -21 206 -21 l162 0 0 -443 0 -443 48 -23 c26 -13 91 -52 145 -87 54 -35 102 -64 107 -64 5 0 53 29 107 64 54 35 119 74 146 87 l47 23 0 443 0 443 162 0 c145 0 166 2 206 21 33 16 49 32 63 63 26 58 24 95 -10 147 -37 57 -616 632 -658 653 -48 24 -93 20 -144 -13z" />
        <path d="M669 3581 c-57 -37 -632 -616 -653 -658 -24 -48 -20 -93 13 -144 37 -57 616 -632 658 -653 70 -35 157 -5 192 66 19 40 21 61 21 206 l0 162 408 0 c319 0 422 -4 477 -15 225 -47 413 -235 460 -460 12 -59 15 -223 15 -1018 0 -930 0 -949 20 -987 36 -70 70 -80 280 -80 211 0 244 10 280 80 21 40 21 49 17 1043 -3 1098 0 1039 -64 1227 -114 339 -403 627 -743 743 -171 58 -188 60 -687 64 l-463 4 0 162 c0 144 -2 165 -21 205 -16 33 -32 49 -63 63 -58 26 -95 24 -147 -10z" />
        <path d="M4304 3591 c-31 -14 -47 -30 -63 -63 -19 -40 -21 -61 -21 -206 l0 -162 -417 0 c-230 0 -452 -5 -493 -10 -157 -21 -323 -78 -461 -160 l-68 -41 68 -90 c85 -111 171 -274 224 -422 6 -17 9 -16 39 6 18 14 58 37 88 52 114 57 120 58 588 62 l432 4 0 -162 c0 -146 2 -167 21 -207 35 -71 122 -101 192 -66 42 21 621 596 658 653 38 59 38 103 0 162 -37 57 -616 632 -658 653 -42 21 -78 20 -129 -3z" />
    </g>
</svg>
